<svg width="100" height="100" viewBox="0 0 100 100" fill="none" xmlns="http://www.w3.org/2000/svg">
<path d="M31.8094 67.871C30.0226 66.1059 29 64.0567 29 61.871C29 55.2436 38.402 49.871 50 49.871C61.598 49.871 71 55.2436 71 61.871C71 64.0567 69.9774 66.1059 68.1906 67.871C64.5596 64.2842 57.773 61.871 50 61.871C42.227 61.871 35.4404 64.2842 31.8094 67.871Z" fill="url(#paint0_linear_921_464)"/>
<path d="M50 73.871C38.402 73.871 29 68.4984 29 61.871V73.871C29 80.4984 38.402 85.871 50 85.871C61.598 85.871 71 80.4984 71 73.871V61.871C71 68.4984 61.598 73.871 50 73.871Z" fill="url(#paint1_linear_921_464)"/>
<path d="M31.8094 49.9355C30.0226 48.1704 29 46.1212 29 43.9355C29 37.3081 38.402 31.9355 50 31.9355C61.598 31.9355 71 37.3081 71 43.9355C71 46.1212 69.9774 48.1704 68.1906 49.9355C64.5596 46.3487 57.773 43.9355 50 43.9355C42.227 43.9355 35.4404 46.3487 31.8094 49.9355Z" fill="url(#paint2_linear_921_464)"/>
<path d="M50 55.9355C38.402 55.9355 29 50.5629 29 43.9355V55.9355C29 62.5629 38.402 67.9355 50 67.9355C61.598 67.9355 71 62.5629 71 55.9355V43.9355C71 50.5629 61.598 55.9355 50 55.9355Z" fill="url(#paint3_linear_921_464)"/>
<path d="M31.8094 32C30.0226 30.235 29 28.1857 29 26C29 19.3726 38.402 14 50 14C61.598 14 71 19.3726 71 26C71 28.1857 69.9774 30.235 68.1906 32C64.5596 28.4132 57.773 26 50 26C42.227 26 35.4404 28.4132 31.8094 32Z" fill="url(#paint4_linear_921_464)"/>
<path d="M50 38C38.402 38 29 32.6274 29 26V38C29 44.6274 38.402 50 50 50C61.598 50 71 44.6274 71 38V26C71 32.6274 61.598 38 50 38Z" fill="url(#paint5_linear_921_464)"/>
<defs>
<linearGradient id="paint0_linear_921_464" x1="50" y1="49.871" x2="50" y2="66.371" gradientUnits="userSpaceOnUse">
<stop stop-color="#525252"/>
<stop offset="1" stop-color="#9F9F9F"/>
</linearGradient>
<linearGradient id="paint1_linear_921_464" x1="50" y1="68.871" x2="50" y2="85.871" gradientUnits="userSpaceOnUse">
<stop stop-opacity="0.9"/>
<stop offset="1" stop-color="#A9A9A9"/>
</linearGradient>
<linearGradient id="paint2_linear_921_464" x1="50" y1="31.9355" x2="50" y2="48.4355" gradientUnits="userSpaceOnUse">
<stop stop-color="#525252"/>
<stop offset="1" stop-color="#9F9F9F"/>
</linearGradient>
<linearGradient id="paint3_linear_921_464" x1="50" y1="50.9355" x2="50" y2="67.9355" gradientUnits="userSpaceOnUse">
<stop stop-opacity="0.9"/>
<stop offset="1" stop-color="#A9A9A9"/>
</linearGradient>
<linearGradient id="paint4_linear_921_464" x1="50" y1="14" x2="50" y2="30.5" gradientUnits="userSpaceOnUse">
<stop/>
<stop offset="1" stop-color="#9F9F9F"/>
</linearGradient>
<linearGradient id="paint5_linear_921_464" x1="50" y1="33" x2="50" y2="50" gradientUnits="userSpaceOnUse">
<stop/>
<stop offset="1" stop-color="#A9A9A9"/>
</linearGradient>
</defs>
</svg>
