<svg width="100" height="100" viewBox="0 0 100 100" fill="none" xmlns="http://www.w3.org/2000/svg">
<path d="M25.1505 35.6901C25.3971 34.9266 25.6765 34.1754 25.9879 33.4384L40.4384 18.9879C41.1754 18.6765 41.9267 18.3971 42.6901 18.1505L25.1505 35.6901Z" fill="url(#paint0_linear_921_463)"/>
<path d="M24.2204 39.4484C24.3255 38.8474 24.4499 38.2514 24.5934 37.6613L44.6613 17.5934C45.2514 17.4499 45.8474 17.3255 46.4484 17.2204L24.2204 39.4484Z" fill="url(#paint1_linear_921_463)"/>
<path d="M23.8489 42.6485C23.8792 42.13 23.9237 41.614 23.9822 41.101L48.101 16.9822C48.614 16.9237 49.13 16.8792 49.6485 16.8489L23.8489 42.6485Z" fill="url(#paint2_linear_921_463)"/>
<path d="M23.8257 45.5C23.816 45.2686 23.8091 45.0369 23.805 44.805C23.801 44.573 23.7997 44.3414 23.8013 44.1101L51.1101 16.8013C51.3414 16.7997 51.5731 16.801 51.8051 16.805C52.0369 16.8091 52.2686 16.816 52.5 16.8257L23.8257 45.5Z" fill="url(#paint3_linear_921_463)"/>
<path d="M24.0535 48.1007C23.997 47.6779 23.9499 47.2535 23.9122 46.8278L53.8278 16.9122C54.2535 16.9499 54.6779 16.997 55.1007 17.0535L24.0535 48.1007Z" fill="url(#paint4_linear_921_463)"/>
<path d="M24.4784 50.5043C24.3921 50.1129 24.3138 49.7197 24.2438 49.3247L56.3247 17.2438C56.7197 17.3138 57.1129 17.3921 57.5043 17.4784L24.4784 50.5043Z" fill="url(#paint5_linear_921_463)"/>
<path d="M25.0664 52.7445C24.955 52.3795 24.8507 52.0123 24.7536 51.6432L58.6432 17.7536C59.0123 17.8507 59.3795 17.955 59.7445 18.0664L25.0664 52.7445Z" fill="url(#paint6_linear_921_463)"/>
<path d="M25.7953 54.8442C25.6619 54.5021 25.5349 54.1576 25.4144 53.8109L60.8109 18.4144C61.1576 18.5349 61.5021 18.6619 61.8442 18.7953L25.7953 54.8442Z" fill="url(#paint7_linear_921_463)"/>
<path d="M26.6493 56.8186C26.4961 56.497 26.3488 56.1729 26.2075 55.8463L62.8463 19.2075C63.1729 19.3488 63.497 19.4961 63.8186 19.6493L26.6493 56.8186Z" fill="url(#paint8_linear_921_463)"/>
<path d="M27.6174 58.6789C27.446 58.3761 27.2801 58.0706 27.1196 57.7624L64.7624 20.1196C65.0706 20.2801 65.3761 20.446 65.6789 20.6174L27.6174 58.6789Z" fill="url(#paint9_linear_921_463)"/>
<path d="M28.6917 60.4331C28.5033 60.1479 28.3199 59.8598 28.1417 59.5689L66.5689 21.1417C66.8598 21.3199 67.1479 21.5033 67.4331 21.6917L28.6917 60.4331Z" fill="url(#paint10_linear_921_463)"/>
<path d="M29.8667 62.0864C29.662 61.818 29.462 61.5465 29.2669 61.272L68.272 22.2669C68.5465 22.462 68.818 22.662 69.0864 22.8667L29.8667 62.0864Z" fill="url(#paint11_linear_921_463)"/>
<path d="M31.1389 63.6427C30.9184 63.3906 30.7023 63.1352 30.4909 62.8766L69.8766 23.4909C70.1352 23.7023 70.3906 23.9184 70.6427 24.1389L31.1389 63.6427Z" fill="url(#paint12_linear_921_463)"/>
<path d="M32.5061 65.104C32.2699 64.8679 32.0381 64.6282 31.8107 64.3852L71.3852 24.8107C71.6282 25.0381 71.8679 25.2699 72.104 25.5061L32.5061 65.104Z" fill="url(#paint13_linear_921_463)"/>
<path d="M37.6607 20.3514L27.3514 30.6607C28.5525 28.5287 30.0429 26.555 31.799 24.799C33.555 23.0429 35.5287 21.5525 37.6607 20.3514Z" fill="url(#paint14_linear_921_463)"/>
<path d="M74.3123 64.2548C74.0657 65.0182 73.7863 65.7694 73.4749 66.5064L59.0244 80.957C58.2874 81.2683 57.5362 81.5478 56.7727 81.7944L74.3123 64.2548Z" fill="url(#paint15_linear_921_463)"/>
<path d="M75.2424 60.4964C75.1373 61.0975 75.0129 61.6935 74.8694 62.2836L54.8015 82.3515C54.2114 82.495 53.6154 82.6194 53.0144 82.7244L75.2424 60.4964Z" fill="url(#paint16_linear_921_463)"/>
<path d="M75.6139 57.2964C75.5836 57.8149 75.5391 58.3308 75.4806 58.8438L51.3618 82.9627C50.8488 83.0211 50.3328 83.0656 49.8143 83.0959L75.6139 57.2964Z" fill="url(#paint17_linear_921_463)"/>
<path d="M75.6371 54.4449C75.6468 54.6763 75.6537 54.9079 75.6578 55.1398C75.6618 55.3718 75.6631 55.6035 75.6615 55.8347L48.3527 83.1435C48.1214 83.1451 47.8898 83.1439 47.6578 83.1398C47.4259 83.1357 47.1942 83.1288 46.9628 83.1192L75.6371 54.4449Z" fill="url(#paint18_linear_921_463)"/>
<path d="M75.4093 51.8441C75.4658 52.2669 75.5129 52.6914 75.5506 53.1171L45.635 83.0326C45.2093 82.9949 44.7849 82.9478 44.3621 82.8913L75.4093 51.8441Z" fill="url(#paint19_linear_921_463)"/>
<path d="M74.9844 49.4405C75.0707 49.8319 75.149 50.2252 75.219 50.6201L43.1381 82.7011C42.7431 82.631 42.3499 82.5528 41.9585 82.4665L74.9844 49.4405Z" fill="url(#paint20_linear_921_463)"/>
<path d="M74.3964 47.2003C74.5078 47.5654 74.6121 47.9326 74.7092 48.3017L40.8197 82.1913C40.4505 82.0942 40.0833 81.9899 39.7183 81.8784L74.3964 47.2003Z" fill="url(#paint21_linear_921_463)"/>
<path d="M73.6675 45.1007C73.8009 45.4428 73.9279 45.7873 74.0484 46.134L38.6519 81.5304C38.3052 81.41 37.9607 81.2829 37.6186 81.1495L73.6675 45.1007Z" fill="url(#paint22_linear_921_463)"/>
<path d="M72.8135 43.1262C72.9667 43.4478 73.114 43.772 73.2553 44.0986L36.6165 80.7374C36.29 80.596 35.9658 80.4487 35.6442 80.2955L72.8135 43.1262Z" fill="url(#paint23_linear_921_463)"/>
<path d="M71.8454 41.2659C72.0168 41.5687 72.1827 41.8743 72.3432 42.1824L34.7004 79.8252C34.3922 79.6648 34.0867 79.4988 33.7839 79.3275L71.8454 41.2659Z" fill="url(#paint24_linear_921_463)"/>
<path d="M70.7711 39.5118C70.9595 39.7969 71.1429 40.085 71.3211 40.3759L32.8939 78.8032C32.603 78.625 32.3149 78.4416 32.0297 78.2531L70.7711 39.5118Z" fill="url(#paint25_linear_921_463)"/>
<path d="M69.5961 37.8585C69.8008 38.1269 70.0008 38.3984 70.1959 38.6728L31.1908 77.678C30.9163 77.4829 30.6448 77.2829 30.3764 77.0781L69.5961 37.8585Z" fill="url(#paint26_linear_921_463)"/>
<path d="M68.3239 36.3021C68.5444 36.5543 68.7605 36.8097 68.9719 37.0683L29.5862 76.454C29.3276 76.2425 29.0722 76.0265 28.8201 75.8059L68.3239 36.3021Z" fill="url(#paint27_linear_921_463)"/>
<path d="M28.0776 75.1341C27.8346 74.9068 27.5949 74.6749 27.3588 74.4388L66.9567 34.8408C67.1929 35.077 67.4247 35.3166 67.6521 35.5597L28.0776 75.1341Z" fill="url(#paint28_linear_921_463)"/>
<path d="M61.8021 79.5934L72.1114 69.2842C70.9103 71.4162 69.4199 73.3898 67.6638 75.1459C65.9078 76.902 63.9341 78.3924 61.8021 79.5934Z" fill="url(#paint29_linear_921_463)"/>
<defs>
<linearGradient id="paint0_linear_921_463" x1="31.799" y1="24.799" x2="54.1404" y2="46.7067" gradientUnits="userSpaceOnUse">
<stop stop-opacity="0.9"/>
<stop offset="1" stop-opacity="0"/>
</linearGradient>
<linearGradient id="paint1_linear_921_463" x1="31.799" y1="24.799" x2="54.1404" y2="46.7067" gradientUnits="userSpaceOnUse">
<stop stop-opacity="0.9"/>
<stop offset="1" stop-opacity="0"/>
</linearGradient>
<linearGradient id="paint2_linear_921_463" x1="31.799" y1="24.799" x2="54.1404" y2="46.7067" gradientUnits="userSpaceOnUse">
<stop stop-opacity="0.9"/>
<stop offset="1" stop-opacity="0"/>
</linearGradient>
<linearGradient id="paint3_linear_921_463" x1="31.799" y1="24.799" x2="54.1404" y2="46.7067" gradientUnits="userSpaceOnUse">
<stop stop-opacity="0.9"/>
<stop offset="1" stop-opacity="0"/>
</linearGradient>
<linearGradient id="paint4_linear_921_463" x1="31.799" y1="24.799" x2="54.1404" y2="46.7067" gradientUnits="userSpaceOnUse">
<stop stop-opacity="0.9"/>
<stop offset="1" stop-opacity="0"/>
</linearGradient>
<linearGradient id="paint5_linear_921_463" x1="31.799" y1="24.799" x2="54.1404" y2="46.7067" gradientUnits="userSpaceOnUse">
<stop stop-opacity="0.9"/>
<stop offset="1" stop-opacity="0"/>
</linearGradient>
<linearGradient id="paint6_linear_921_463" x1="31.799" y1="24.799" x2="54.1404" y2="46.7067" gradientUnits="userSpaceOnUse">
<stop stop-opacity="0.9"/>
<stop offset="1" stop-opacity="0"/>
</linearGradient>
<linearGradient id="paint7_linear_921_463" x1="31.799" y1="24.799" x2="54.1404" y2="46.7067" gradientUnits="userSpaceOnUse">
<stop stop-opacity="0.9"/>
<stop offset="1" stop-opacity="0"/>
</linearGradient>
<linearGradient id="paint8_linear_921_463" x1="31.799" y1="24.799" x2="54.1404" y2="46.7067" gradientUnits="userSpaceOnUse">
<stop stop-opacity="0.9"/>
<stop offset="1" stop-opacity="0"/>
</linearGradient>
<linearGradient id="paint9_linear_921_463" x1="31.799" y1="24.799" x2="54.1404" y2="46.7067" gradientUnits="userSpaceOnUse">
<stop stop-opacity="0.9"/>
<stop offset="1" stop-opacity="0"/>
</linearGradient>
<linearGradient id="paint10_linear_921_463" x1="31.799" y1="24.799" x2="54.1404" y2="46.7067" gradientUnits="userSpaceOnUse">
<stop stop-opacity="0.9"/>
<stop offset="1" stop-opacity="0"/>
</linearGradient>
<linearGradient id="paint11_linear_921_463" x1="31.799" y1="24.799" x2="54.1404" y2="46.7067" gradientUnits="userSpaceOnUse">
<stop stop-opacity="0.9"/>
<stop offset="1" stop-opacity="0"/>
</linearGradient>
<linearGradient id="paint12_linear_921_463" x1="31.799" y1="24.799" x2="54.1404" y2="46.7067" gradientUnits="userSpaceOnUse">
<stop stop-opacity="0.9"/>
<stop offset="1" stop-opacity="0"/>
</linearGradient>
<linearGradient id="paint13_linear_921_463" x1="31.799" y1="24.799" x2="54.1404" y2="46.7067" gradientUnits="userSpaceOnUse">
<stop stop-opacity="0.9"/>
<stop offset="1" stop-opacity="0"/>
</linearGradient>
<linearGradient id="paint14_linear_921_463" x1="31.799" y1="24.799" x2="54.1404" y2="46.7067" gradientUnits="userSpaceOnUse">
<stop stop-opacity="0.9"/>
<stop offset="1" stop-opacity="0"/>
</linearGradient>
<linearGradient id="paint15_linear_921_463" x1="67.6639" y1="75.1459" x2="45.3225" y2="53.2383" gradientUnits="userSpaceOnUse">
<stop stop-opacity="0.9"/>
<stop offset="1" stop-opacity="0"/>
</linearGradient>
<linearGradient id="paint16_linear_921_463" x1="67.6639" y1="75.1459" x2="45.3225" y2="53.2383" gradientUnits="userSpaceOnUse">
<stop stop-opacity="0.9"/>
<stop offset="1" stop-opacity="0"/>
</linearGradient>
<linearGradient id="paint17_linear_921_463" x1="67.6639" y1="75.1459" x2="45.3225" y2="53.2383" gradientUnits="userSpaceOnUse">
<stop stop-opacity="0.9"/>
<stop offset="1" stop-opacity="0"/>
</linearGradient>
<linearGradient id="paint18_linear_921_463" x1="67.6639" y1="75.1459" x2="45.3225" y2="53.2383" gradientUnits="userSpaceOnUse">
<stop stop-opacity="0.9"/>
<stop offset="1" stop-opacity="0"/>
</linearGradient>
<linearGradient id="paint19_linear_921_463" x1="67.6639" y1="75.1459" x2="45.3225" y2="53.2383" gradientUnits="userSpaceOnUse">
<stop stop-opacity="0.9"/>
<stop offset="1" stop-opacity="0"/>
</linearGradient>
<linearGradient id="paint20_linear_921_463" x1="67.6639" y1="75.1459" x2="45.3225" y2="53.2383" gradientUnits="userSpaceOnUse">
<stop stop-opacity="0.9"/>
<stop offset="1" stop-opacity="0"/>
</linearGradient>
<linearGradient id="paint21_linear_921_463" x1="67.6639" y1="75.1459" x2="45.3225" y2="53.2383" gradientUnits="userSpaceOnUse">
<stop stop-opacity="0.9"/>
<stop offset="1" stop-opacity="0"/>
</linearGradient>
<linearGradient id="paint22_linear_921_463" x1="67.6639" y1="75.1459" x2="45.3225" y2="53.2383" gradientUnits="userSpaceOnUse">
<stop stop-opacity="0.9"/>
<stop offset="1" stop-opacity="0"/>
</linearGradient>
<linearGradient id="paint23_linear_921_463" x1="67.6639" y1="75.1459" x2="45.3225" y2="53.2383" gradientUnits="userSpaceOnUse">
<stop stop-opacity="0.9"/>
<stop offset="1" stop-opacity="0"/>
</linearGradient>
<linearGradient id="paint24_linear_921_463" x1="67.6639" y1="75.1459" x2="45.3225" y2="53.2383" gradientUnits="userSpaceOnUse">
<stop stop-opacity="0.9"/>
<stop offset="1" stop-opacity="0"/>
</linearGradient>
<linearGradient id="paint25_linear_921_463" x1="67.6639" y1="75.1459" x2="45.3225" y2="53.2383" gradientUnits="userSpaceOnUse">
<stop stop-opacity="0.9"/>
<stop offset="1" stop-opacity="0"/>
</linearGradient>
<linearGradient id="paint26_linear_921_463" x1="67.6639" y1="75.1459" x2="45.3225" y2="53.2383" gradientUnits="userSpaceOnUse">
<stop stop-opacity="0.9"/>
<stop offset="1" stop-opacity="0"/>
</linearGradient>
<linearGradient id="paint27_linear_921_463" x1="67.6639" y1="75.1459" x2="45.3225" y2="53.2383" gradientUnits="userSpaceOnUse">
<stop stop-opacity="0.9"/>
<stop offset="1" stop-opacity="0"/>
</linearGradient>
<linearGradient id="paint28_linear_921_463" x1="67.6639" y1="75.1459" x2="45.3225" y2="53.2383" gradientUnits="userSpaceOnUse">
<stop stop-opacity="0.9"/>
<stop offset="1" stop-opacity="0"/>
</linearGradient>
<linearGradient id="paint29_linear_921_463" x1="67.6639" y1="75.1459" x2="45.3225" y2="53.2383" gradientUnits="userSpaceOnUse">
<stop stop-opacity="0.9"/>
<stop offset="1" stop-opacity="0"/>
</linearGradient>
</defs>
</svg>
