<svg width="352" height="242" viewBox="0 0 352 242" fill="none" xmlns="http://www.w3.org/2000/svg">
<path d="M310.039 151.102C303.32 147.469 294.453 145.438 285 145.438C275.547 145.438 266.68 147.469 259.961 151.102C253.242 154.734 249.062 160.125 249.062 165.75V203.25C249.062 208.875 252.93 214.07 259.961 217.898C266.992 221.727 275.547 223.562 285 223.562C294.453 223.562 303.32 221.531 310.039 217.898C316.758 214.266 320.938 208.875 320.938 203.25V165.75C320.938 160.125 317.07 154.93 310.039 151.102ZM261.445 153.875C267.695 150.437 276.094 148.562 285 148.562C293.906 148.562 302.305 150.437 308.555 153.875C314.805 157.312 317.812 161.336 317.812 165.75C317.812 170.164 314.531 174.383 308.555 177.625C302.578 180.867 293.906 182.938 285 182.938C276.094 182.938 267.695 181.063 261.445 177.625C255.195 174.188 252.188 170.164 252.188 165.75C252.188 161.336 255.469 157.117 261.445 153.875ZM317.812 203.25C317.812 207.664 314.531 211.883 308.555 215.125C302.578 218.367 293.906 220.438 285 220.438C276.094 220.438 267.695 218.562 261.445 215.125C255.195 211.687 252.188 207.664 252.188 203.25V192.898C254.023 195.203 256.641 197.313 259.961 199.148C266.68 202.781 275.547 204.812 285 204.812C294.453 204.812 303.32 202.781 310.039 199.148C313.359 197.313 315.977 195.203 317.812 192.898V203.25ZM317.812 184.5C317.812 188.914 314.531 193.133 308.555 196.375C302.578 199.617 293.906 201.688 285 201.688C276.094 201.688 267.695 199.812 261.445 196.375C255.195 192.937 252.188 188.914 252.188 184.5V174.148C254.023 176.453 256.641 178.563 259.961 180.398C266.68 184.031 275.547 186.062 285 186.062C294.453 186.062 303.32 184.031 310.039 180.398C313.359 178.563 315.977 176.453 317.812 174.148V184.5Z" fill="black"/>
<circle cx="325" cy="212.5" r="27" fill="white"/>
<path d="M325 233.333C313.494 233.333 304.167 224.006 304.167 212.5C304.167 200.994 313.494 191.667 325 191.667C336.506 191.667 345.833 200.994 345.833 212.5C345.833 224.006 336.506 233.333 325 233.333ZM325 203.66L316.16 212.5L325 221.34L333.84 212.5L325 203.66Z" fill="black"/>
<path d="M89.0625 184.5C89.0667 177.997 87.4474 171.596 84.3514 165.878C81.2555 160.159 76.7809 155.304 71.3335 151.752C65.8861 148.201 59.6382 146.066 53.1567 145.54C46.6751 145.015 40.1649 146.116 34.2165 148.743C28.2682 151.371 23.0699 155.442 19.0931 160.587C15.1164 165.732 12.4871 171.788 11.4437 178.207C10.4002 184.626 10.9757 191.203 13.1179 197.343C15.2601 203.483 18.9012 208.991 23.7109 213.367C23.8097 213.49 23.9286 213.596 24.0625 213.68C31.2097 220.046 40.4477 223.564 50.0195 223.564C59.5913 223.564 68.8293 220.046 75.9766 213.68L76.2891 213.367C80.3171 209.715 83.5349 205.259 85.735 200.287C87.9351 195.315 89.0687 189.937 89.0625 184.5V184.5ZM14.0625 184.5C14.062 178.593 15.5175 172.778 18.3 167.567C21.0826 162.357 25.1064 157.913 30.0156 154.629C34.9248 151.344 40.5679 149.32 46.4456 148.736C52.3233 148.152 58.2543 149.025 63.714 151.279C69.1737 153.533 73.9936 157.098 77.7473 161.659C81.501 166.219 84.0727 171.635 85.235 177.426C86.3972 183.217 86.114 189.205 84.4106 194.861C82.7072 200.517 79.636 205.665 75.4687 209.852C71.5897 203.353 65.3696 198.587 58.0859 196.531C61.4685 194.728 64.1512 191.845 65.7074 188.342C67.2636 184.839 67.6041 180.916 66.6746 177.197C65.7452 173.478 63.5992 170.177 60.5779 167.818C57.5566 165.458 53.8333 164.177 50 164.177C46.1667 164.177 42.4434 165.458 39.4221 167.818C36.4008 170.177 34.2548 173.478 33.3254 177.197C32.3959 180.916 32.7364 184.839 34.2926 188.342C35.8488 191.845 38.5315 194.728 41.9141 196.531C34.6304 198.587 28.4103 203.353 24.5312 209.852C17.8309 203.115 14.0675 194.001 14.0625 184.5V184.5ZM50 195.437C47.2187 195.437 44.4999 194.613 42.1873 193.067C39.8747 191.522 38.0723 189.326 37.0079 186.756C35.9436 184.187 35.6651 181.359 36.2077 178.631C36.7503 175.904 38.0896 173.398 40.0563 171.431C42.023 169.465 44.5287 168.125 47.2565 167.583C49.9844 167.04 52.8119 167.319 55.3815 168.383C57.9511 169.447 60.1473 171.25 61.6925 173.562C63.2377 175.875 64.0625 178.594 64.0625 181.375C64.0625 185.105 62.5809 188.681 59.9437 191.319C57.3065 193.956 53.7296 195.437 50 195.437V195.437ZM26.9141 212C29.2341 207.923 32.5923 204.533 36.6473 202.176C40.7022 199.818 45.3093 198.575 50 198.575C54.6907 198.575 59.2977 199.818 63.3527 202.176C67.4077 204.533 70.7659 207.923 73.0859 212C66.6258 217.445 58.4489 220.432 50 220.432C41.5511 220.432 33.3742 217.445 26.9141 212V212Z" fill="black"/>
<circle cx="90" cy="212.5" r="27" fill="white"/>
<path d="M90 190.625C85.6735 190.625 81.4442 191.908 77.8469 194.312C74.2496 196.715 71.4458 200.132 69.7901 204.129C68.1345 208.126 67.7013 212.524 68.5453 216.768C69.3894 221.011 71.4728 224.909 74.532 227.968C77.5913 231.027 81.4891 233.111 85.7324 233.955C89.9757 234.799 94.3741 234.366 98.3712 232.71C102.368 231.054 105.785 228.25 108.188 224.653C110.592 221.056 111.875 216.826 111.875 212.5C111.875 206.698 109.57 201.134 105.468 197.032C101.366 192.93 95.8016 190.625 90 190.625ZM86.875 221.234L79.0625 213.422L81.5469 210.938L86.875 216.266L98.4531 204.688L100.947 207.166L86.875 221.234Z" fill="black"/>
<path d="M89.0625 69.5C89.0667 62.9971 87.4474 56.5961 84.3514 50.8776C81.2555 45.159 76.7809 40.3038 71.3335 36.7524C65.8861 33.2009 59.6382 31.0656 53.1567 30.5401C46.6751 30.0146 40.1649 31.1156 34.2165 33.7431C28.2682 36.3706 23.0699 40.4416 19.0931 45.5867C15.1164 50.7319 12.4871 56.7884 11.4437 63.207C10.4002 69.6255 10.9757 76.2031 13.1179 82.3429C15.2601 88.4828 18.9012 93.9907 23.7109 98.3671C23.8097 98.4903 23.9286 98.5959 24.0625 98.6796C31.2097 105.046 40.4477 108.564 50.0195 108.564C59.5913 108.564 68.8293 105.046 75.9766 98.6796L76.2891 98.3671C80.3171 94.7151 83.5349 90.2593 85.735 85.2872C87.9351 80.3151 89.0687 74.9371 89.0625 69.5V69.5ZM14.0625 69.5C14.062 63.5933 15.5175 57.7776 18.3 52.5674C21.0826 47.3572 25.1064 42.9132 30.0156 39.6286C34.9248 36.344 40.5679 34.32 46.4456 33.7358C52.3233 33.1516 58.2543 34.0252 63.714 36.2792C69.1737 38.5332 73.9936 42.0982 77.7473 46.6587C81.501 51.2192 84.0727 56.6347 85.235 62.4259C86.3972 68.2171 86.114 74.2054 84.4106 79.8611C82.7072 85.5168 79.636 90.6655 75.4687 94.8515C71.5897 88.3531 65.3696 83.5866 58.0859 81.5312C61.4685 79.7278 64.1512 76.8454 65.7074 73.3422C67.2636 69.839 67.6041 65.9161 66.6746 62.1972C65.7452 58.4783 63.5992 55.1768 60.5779 52.8177C57.5566 50.4585 53.8333 49.177 50 49.177C46.1667 49.177 42.4434 50.4585 39.4221 52.8177C36.4008 55.1768 34.2548 58.4783 33.3254 62.1972C32.3959 65.9161 32.7364 69.839 34.2926 73.3422C35.8488 76.8454 38.5315 79.7278 41.9141 81.5312C34.6304 83.5866 28.4103 88.3531 24.5312 94.8515C17.8309 88.1149 14.0675 79.0013 14.0625 69.5V69.5ZM50 80.4374C47.2187 80.4374 44.4999 79.6127 42.1873 78.0675C39.8747 76.5223 38.0723 74.326 37.0079 71.7564C35.9436 69.1868 35.6651 66.3593 36.2077 63.6315C36.7503 60.9036 38.0896 58.3979 40.0563 56.4313C42.023 54.4646 44.5287 53.1253 47.2565 52.5827C49.9844 52.0401 52.8119 52.3185 55.3815 53.3829C57.9511 54.4473 60.1473 56.2497 61.6925 58.5622C63.2377 60.8748 64.0625 63.5937 64.0625 66.375C64.0625 70.1046 62.5809 73.6814 59.9437 76.3186C57.3065 78.9559 53.7296 80.4374 50 80.4374V80.4374ZM26.9141 96.9999C29.2341 92.9232 32.5923 89.5335 36.6473 87.1755C40.7022 84.8175 45.3093 83.5754 50 83.5754C54.6907 83.5754 59.2977 84.8175 63.3527 87.1755C67.4077 89.5335 70.7659 92.9232 73.0859 96.9999C66.6258 102.445 58.4489 105.432 50 105.432C41.5511 105.432 33.3742 102.445 26.9141 96.9999V96.9999Z" fill="#D9D9D9"/>
<circle cx="90" cy="98.5" r="27" fill="white"/>
<path d="M90 76.625C77.8125 76.625 68.125 86.3125 68.125 98.5C68.125 110.688 77.8125 120.375 90 120.375C102.188 120.375 111.875 110.688 111.875 98.5C111.875 86.3125 102.188 76.625 90 76.625ZM98.4375 109.438L90 101L81.5625 109.438L79.0625 106.938L87.5 98.5L79.0625 90.0625L81.5625 87.5625L90 96L98.4375 87.5625L100.938 90.0625L92.5 98.5L100.938 106.938L98.4375 109.438Z" fill="#D9D9D9"/>
<path d="M236.061 185.561C236.646 184.975 236.646 184.025 236.061 183.439L226.515 173.893C225.929 173.308 224.979 173.308 224.393 173.893C223.808 174.479 223.808 175.429 224.393 176.015L232.879 184.5L224.393 192.985C223.808 193.571 223.808 194.521 224.393 195.107C224.979 195.692 225.929 195.692 226.515 195.107L236.061 185.561ZM100 73H147.5V70H100V73ZM166 91.5V164.5H169V91.5H166ZM187.5 186H235V183H187.5V186ZM166 164.5C166 176.374 175.626 186 187.5 186V183C177.283 183 169 174.717 169 164.5H166ZM147.5 73C157.717 73 166 81.2827 166 91.5H169C169 79.6259 159.374 70 147.5 70V73Z" fill="#D9D9D9"/>
<path d="M236.061 185.561C236.646 184.975 236.646 184.025 236.061 183.439L226.515 173.893C225.929 173.308 224.979 173.308 224.393 173.893C223.808 174.479 223.808 175.429 224.393 176.015L232.879 184.5L224.393 192.985C223.808 193.571 223.808 194.521 224.393 195.107C224.979 195.692 225.929 195.692 226.515 195.107L236.061 185.561ZM100 186H235V183H100V186Z" fill="#3E3E3E"/>
<path d="M124 176.5C124 169.873 129.373 164.5 136 164.5H199C205.627 164.5 211 169.873 211 176.5V191.5C211 198.127 205.627 203.5 199 203.5H136C129.373 203.5 124 198.127 124 191.5V176.5Z" fill="white"/>
<path d="M143.045 189.5H139.278V177.864H143.165C144.305 177.864 145.284 178.097 146.102 178.562C146.92 179.025 147.547 179.689 147.983 180.557C148.422 181.42 148.642 182.456 148.642 183.665C148.642 184.877 148.42 185.919 147.977 186.79C147.538 187.661 146.902 188.331 146.068 188.801C145.235 189.267 144.227 189.5 143.045 189.5ZM141.034 187.966H142.949C143.835 187.966 144.572 187.799 145.159 187.466C145.746 187.129 146.186 186.642 146.477 186.006C146.769 185.366 146.915 184.585 146.915 183.665C146.915 182.752 146.769 181.977 146.477 181.341C146.189 180.705 145.759 180.222 145.188 179.892C144.616 179.562 143.905 179.398 143.057 179.398H141.034V187.966ZM154.45 189.676C153.59 189.676 152.85 189.492 152.229 189.125C151.611 188.754 151.134 188.233 150.797 187.562C150.464 186.888 150.297 186.098 150.297 185.193C150.297 184.299 150.464 183.511 150.797 182.83C151.134 182.148 151.604 181.616 152.206 181.233C152.812 180.85 153.52 180.659 154.331 180.659C154.823 180.659 155.301 180.741 155.763 180.903C156.225 181.066 156.64 181.322 157.007 181.67C157.375 182.019 157.664 182.472 157.876 183.028C158.089 183.581 158.195 184.254 158.195 185.045V185.648H151.257V184.375H156.53C156.53 183.928 156.439 183.532 156.257 183.188C156.075 182.839 155.82 182.564 155.49 182.364C155.164 182.163 154.782 182.062 154.342 182.062C153.865 182.062 153.448 182.18 153.092 182.415C152.74 182.646 152.467 182.949 152.274 183.324C152.085 183.695 151.99 184.098 151.99 184.534V185.528C151.99 186.112 152.092 186.608 152.297 187.017C152.505 187.426 152.795 187.739 153.166 187.955C153.537 188.167 153.971 188.273 154.467 188.273C154.789 188.273 155.083 188.227 155.348 188.136C155.613 188.042 155.842 187.902 156.036 187.716C156.229 187.53 156.376 187.301 156.479 187.028L158.087 187.318C157.958 187.792 157.727 188.206 157.393 188.562C157.064 188.915 156.649 189.189 156.149 189.386C155.653 189.58 155.087 189.676 154.45 189.676ZM160.08 192.773V180.773H161.739V182.188H161.881C161.979 182.006 162.121 181.795 162.307 181.557C162.492 181.318 162.75 181.11 163.08 180.932C163.409 180.75 163.845 180.659 164.386 180.659C165.091 180.659 165.72 180.837 166.273 181.193C166.826 181.549 167.259 182.062 167.574 182.733C167.892 183.403 168.051 184.21 168.051 185.153C168.051 186.097 167.894 186.905 167.58 187.58C167.265 188.25 166.833 188.767 166.284 189.131C165.735 189.491 165.108 189.67 164.403 189.67C163.873 189.67 163.439 189.581 163.102 189.403C162.769 189.225 162.508 189.017 162.318 188.778C162.129 188.54 161.983 188.328 161.881 188.142H161.778V192.773H160.08ZM161.744 185.136C161.744 185.75 161.833 186.288 162.011 186.75C162.189 187.212 162.447 187.574 162.784 187.835C163.121 188.093 163.534 188.222 164.023 188.222C164.53 188.222 164.955 188.087 165.295 187.818C165.636 187.545 165.894 187.176 166.068 186.71C166.246 186.244 166.335 185.72 166.335 185.136C166.335 184.561 166.248 184.044 166.074 183.585C165.903 183.127 165.646 182.765 165.301 182.5C164.96 182.235 164.534 182.102 164.023 182.102C163.53 182.102 163.114 182.229 162.773 182.483C162.436 182.737 162.18 183.091 162.006 183.545C161.831 184 161.744 184.53 161.744 185.136ZM173.631 189.676C172.813 189.676 172.098 189.489 171.489 189.114C170.879 188.739 170.405 188.214 170.068 187.54C169.731 186.866 169.562 186.078 169.562 185.176C169.562 184.271 169.731 183.479 170.068 182.801C170.405 182.123 170.879 181.597 171.489 181.222C172.098 180.847 172.813 180.659 173.631 180.659C174.449 180.659 175.163 180.847 175.773 181.222C176.383 181.597 176.856 182.123 177.193 182.801C177.53 183.479 177.699 184.271 177.699 185.176C177.699 186.078 177.53 186.866 177.193 187.54C176.856 188.214 176.383 188.739 175.773 189.114C175.163 189.489 174.449 189.676 173.631 189.676ZM173.636 188.25C174.167 188.25 174.606 188.11 174.955 187.83C175.303 187.549 175.561 187.176 175.727 186.71C175.898 186.244 175.983 185.731 175.983 185.17C175.983 184.614 175.898 184.102 175.727 183.636C175.561 183.167 175.303 182.79 174.955 182.506C174.606 182.222 174.167 182.08 173.636 182.08C173.102 182.08 172.659 182.222 172.307 182.506C171.958 182.79 171.699 183.167 171.528 183.636C171.362 184.102 171.278 184.614 171.278 185.17C171.278 185.731 171.362 186.244 171.528 186.71C171.699 187.176 171.958 187.549 172.307 187.83C172.659 188.11 173.102 188.25 173.636 188.25ZM186.135 182.903L184.595 183.176C184.531 182.979 184.429 182.792 184.288 182.614C184.152 182.436 183.966 182.29 183.732 182.176C183.497 182.062 183.203 182.006 182.851 182.006C182.37 182.006 181.968 182.114 181.646 182.33C181.324 182.542 181.163 182.816 181.163 183.153C181.163 183.445 181.271 183.68 181.487 183.858C181.703 184.036 182.052 184.182 182.533 184.295L183.919 184.614C184.722 184.799 185.321 185.085 185.714 185.472C186.108 185.858 186.305 186.36 186.305 186.977C186.305 187.5 186.154 187.966 185.851 188.375C185.552 188.78 185.133 189.098 184.595 189.33C184.061 189.561 183.442 189.676 182.737 189.676C181.76 189.676 180.963 189.468 180.345 189.051C179.728 188.631 179.349 188.034 179.209 187.261L180.851 187.011C180.953 187.439 181.163 187.763 181.482 187.983C181.8 188.199 182.214 188.307 182.726 188.307C183.283 188.307 183.728 188.191 184.061 187.96C184.394 187.725 184.561 187.439 184.561 187.102C184.561 186.83 184.459 186.6 184.254 186.415C184.054 186.229 183.745 186.089 183.328 185.994L181.851 185.67C181.036 185.485 180.434 185.189 180.044 184.784C179.658 184.379 179.464 183.866 179.464 183.244C179.464 182.729 179.608 182.278 179.896 181.892C180.184 181.506 180.582 181.205 181.089 180.989C181.597 180.769 182.179 180.659 182.834 180.659C183.777 180.659 184.519 180.864 185.061 181.273C185.603 181.678 185.961 182.222 186.135 182.903ZM188.173 189.5V180.773H189.872V189.5H188.173ZM189.031 179.426C188.736 179.426 188.482 179.328 188.27 179.131C188.062 178.93 187.957 178.691 187.957 178.415C187.957 178.134 188.062 177.896 188.27 177.699C188.482 177.498 188.736 177.398 189.031 177.398C189.327 177.398 189.579 177.498 189.787 177.699C189.999 177.896 190.105 178.134 190.105 178.415C190.105 178.691 189.999 178.93 189.787 179.131C189.579 179.328 189.327 179.426 189.031 179.426ZM196.232 180.773V182.136H191.464V180.773H196.232ZM192.743 178.682H194.442V186.938C194.442 187.267 194.491 187.515 194.589 187.682C194.688 187.845 194.815 187.956 194.97 188.017C195.129 188.074 195.302 188.102 195.487 188.102C195.624 188.102 195.743 188.093 195.845 188.074C195.947 188.055 196.027 188.04 196.084 188.028L196.391 189.432C196.292 189.47 196.152 189.508 195.97 189.545C195.788 189.587 195.561 189.61 195.288 189.614C194.841 189.621 194.425 189.542 194.038 189.375C193.652 189.208 193.339 188.951 193.101 188.602C192.862 188.254 192.743 187.816 192.743 187.29V178.682Z" fill="black"/>
<path d="M136 165.5H199V163.5H136V165.5ZM210 176.5V191.5H212V176.5H210ZM199 202.5H136V204.5H199V202.5ZM125 191.5V176.5H123V191.5H125ZM136 202.5C129.925 202.5 125 197.575 125 191.5H123C123 198.68 128.82 204.5 136 204.5V202.5ZM210 191.5C210 197.575 205.075 202.5 199 202.5V204.5C206.18 204.5 212 198.68 212 191.5H210ZM199 165.5C205.075 165.5 210 170.425 210 176.5H212C212 169.32 206.18 163.5 199 163.5V165.5ZM136 163.5C128.82 163.5 123 169.32 123 176.5H125C125 170.425 129.925 165.5 136 165.5V163.5Z" fill="black"/>
</svg>
