<svg width="335" height="244" viewBox="0 0 335 244" fill="none" xmlns="http://www.w3.org/2000/svg">
<path d="M254.444 155.556V161.361C264.438 163.833 274.706 165.019 285 164.889C290.755 164.881 296.505 164.547 302.222 163.889C300.926 162.311 299.868 160.552 299.083 158.667C294.917 159.083 290.194 159.333 285 159.333C274.684 159.591 264.387 158.317 254.444 155.556Z" fill="black"/>
<path d="M321.111 171.306V173.583C320.194 175.972 307.056 180.389 285 180.389C274.684 180.652 264.386 179.379 254.444 176.611V182.389C264.436 184.876 274.705 186.071 285 185.944C296.111 185.944 312.583 184.611 321.111 180.389V194.75C320.194 197.139 307.056 201.556 285 201.556C274.678 201.783 264.38 200.472 254.444 197.667V203.444C264.436 205.932 274.705 207.127 285 207C296.111 207 312.583 205.667 321.111 201.444V215.611C320.139 218 307 222.417 285 222.417C263 222.417 249.722 217.889 248.889 215.583V152.944C249.722 150.667 262.778 146.111 285 146.111C289.722 146.111 294.028 146.333 297.889 146.667C298.257 144.793 298.884 142.979 299.75 141.278C294.528 140.778 289.333 140.556 285 140.556C269.528 140.556 243.333 143.139 243.333 152.861V215.583C243.333 225.278 269.528 227.889 285 227.889C300.472 227.889 326.667 225.306 326.667 215.583V169.75C324.897 170.525 323.027 171.049 321.111 171.306Z" fill="black"/>
<path d="M318.333 164.556C326.004 164.556 332.222 158.337 332.222 150.667C332.222 142.996 326.004 136.778 318.333 136.778C310.663 136.778 304.444 142.996 304.444 150.667C304.444 158.337 310.663 164.556 318.333 164.556Z" fill="black"/>
<path d="M50 159C46.9097 159 43.8887 159.916 41.3192 161.633C38.7497 163.35 36.747 165.79 35.5644 168.646C34.3818 171.501 34.0723 174.642 34.6752 177.673C35.2781 180.704 36.7663 183.488 38.9515 185.674C41.1367 187.859 43.9208 189.347 46.9517 189.95C49.9827 190.553 53.1243 190.243 55.9794 189.061C58.8345 187.878 61.2748 185.875 62.9917 183.306C64.7086 180.736 65.625 177.715 65.625 174.625C65.625 170.481 63.9788 166.507 61.0486 163.576C58.1183 160.646 54.144 159 50 159Z" fill="black"/>
<path d="M50 140.25C41.3471 140.25 32.8885 142.816 25.6938 147.623C18.4992 152.431 12.8916 159.263 9.58029 167.258C6.26896 175.252 5.40256 184.049 7.09066 192.535C8.77877 201.022 12.9456 208.817 19.0641 214.936C25.1826 221.054 32.9782 225.221 41.4648 226.909C49.9515 228.597 58.7482 227.731 66.7424 224.42C74.7367 221.108 81.5695 215.501 86.3768 208.306C91.1841 201.112 93.75 192.653 93.75 184C93.7368 172.401 89.1232 161.281 80.9213 153.079C72.7195 144.877 61.5992 140.263 50 140.25ZM74.975 211.894C74.9127 207.795 73.2427 203.884 70.3247 201.005C67.4068 198.126 63.4744 196.508 59.375 196.5H40.625C36.5256 196.508 32.5933 198.126 29.6753 201.005C26.7573 203.884 25.0873 207.795 25.025 211.894C19.358 206.834 15.3617 200.171 13.5651 192.79C11.7686 185.408 12.2566 177.654 14.9645 170.556C17.6724 163.457 22.4726 157.349 28.7293 153.039C34.986 148.73 42.4042 146.422 50.0016 146.422C57.599 146.422 65.0171 148.73 71.2739 153.039C77.5306 157.349 82.3307 163.457 85.0387 170.556C87.7466 177.654 88.2346 185.408 86.438 192.79C84.6415 200.171 80.6451 206.834 74.9781 211.894H74.975Z" fill="black"/>
<path d="M90 191.125C85.0802 191.125 80.2709 192.584 76.1802 195.317C72.0895 198.05 68.9012 201.935 67.0185 206.481C65.1358 211.026 64.6432 216.028 65.603 220.853C66.5628 225.678 68.9319 230.11 72.4107 233.589C75.8896 237.068 80.3219 239.437 85.1471 240.397C89.9724 241.357 94.9739 240.864 99.5193 238.982C104.065 237.099 107.95 233.91 110.683 229.82C113.416 225.729 114.875 220.92 114.875 216C114.875 209.403 112.254 203.076 107.589 198.411C102.924 193.746 96.5973 191.125 90 191.125Z" fill="black" stroke="white" stroke-width="6"/>
<path d="M50 35C46.9097 35 43.8887 35.9164 41.3192 37.6333C38.7497 39.3502 36.747 41.7905 35.5644 44.6456C34.3818 47.5007 34.0723 50.6423 34.6752 53.6733C35.2781 56.7042 36.7663 59.4883 38.9515 61.6735C41.1367 63.8587 43.9208 65.3469 46.9517 65.9498C49.9827 66.5527 53.1243 66.2432 55.9794 65.0606C58.8345 63.878 61.2748 61.8753 62.9917 59.3058C64.7086 56.7363 65.625 53.7153 65.625 50.625C65.625 46.481 63.9788 42.5067 61.0486 39.5765C58.1183 36.6462 54.144 35 50 35Z" fill="#D9D9D9"/>
<path d="M50 16.25C41.3471 16.25 32.8885 18.8159 25.6938 23.6232C18.4992 28.4305 12.8916 35.2633 9.58029 43.2576C6.26896 51.2519 5.40256 60.0485 7.09066 68.5352C8.77877 77.0219 12.9456 84.8174 19.0641 90.9359C25.1826 97.0545 32.9782 101.221 41.4648 102.909C49.9515 104.597 58.7482 103.731 66.7424 100.42C74.7367 97.1084 81.5695 91.5008 86.3768 84.3062C91.1841 77.1115 93.75 68.6529 93.75 60C93.7368 48.4008 89.1232 37.2805 80.9213 29.0787C72.7195 20.8768 61.5992 16.2632 50 16.25ZM74.975 87.8938C74.9127 83.7948 73.2427 79.8843 70.3247 77.005C67.4068 74.1256 63.4744 72.5077 59.375 72.5H40.625C36.5256 72.5077 32.5933 74.1256 29.6753 77.005C26.7573 79.8843 25.0873 83.7948 25.025 87.8938C19.358 82.8336 15.3617 76.1715 13.5651 68.7896C11.7686 61.4077 12.2566 53.6542 14.9645 46.5558C17.6724 39.4574 22.4726 33.349 28.7293 29.0393C34.986 24.7296 42.4042 22.422 50.0016 22.422C57.599 22.422 65.0171 24.7296 71.2739 29.0393C77.5306 33.349 82.3307 39.4574 85.0387 46.5558C87.7466 53.6542 88.2346 61.4077 86.438 68.7896C84.6415 76.1715 80.6451 82.8336 74.9781 87.8938H74.975Z" fill="#D9D9D9"/>
<path d="M90 67.125C76.1556 67.125 65.125 78.1556 65.125 92C65.125 105.844 76.1556 116.875 90 116.875C103.844 116.875 114.875 105.844 114.875 92C114.875 78.1556 103.844 67.125 90 67.125Z" fill="#D9D9D9" stroke="white" stroke-width="6"/>
<path d="M236.061 185.061C236.646 184.475 236.646 183.525 236.061 182.939L226.515 173.393C225.929 172.808 224.979 172.808 224.393 173.393C223.808 173.979 223.808 174.929 224.393 175.515L232.879 184L224.393 192.485C223.808 193.071 223.808 194.021 224.393 194.607C224.979 195.192 225.929 195.192 226.515 194.607L236.061 185.061ZM100 60.5H147.5V57.5H100V60.5ZM166 79V164H169V79H166ZM187.5 185.5H235V182.5H187.5V185.5ZM166 164C166 175.874 175.626 185.5 187.5 185.5V182.5C177.283 182.5 169 174.217 169 164H166ZM147.5 60.5C157.717 60.5 166 68.7827 166 79H169C169 67.1259 159.374 57.5 147.5 57.5V60.5Z" fill="#D9D9D9"/>
<path d="M236.061 185.061C236.646 184.475 236.646 183.525 236.061 182.939L226.515 173.393C225.929 172.808 224.979 172.808 224.393 173.393C223.808 173.979 223.808 174.929 224.393 175.515L232.879 184L224.393 192.485C223.808 193.071 223.808 194.021 224.393 194.607C224.979 195.192 225.929 195.192 226.515 194.607L236.061 185.061ZM100 185.5H235V182.5H100V185.5Z" fill="#3E3E3E"/>
<path d="M124 176C124 169.373 129.373 164 136 164H199C205.627 164 211 169.373 211 176V191C211 197.627 205.627 203 199 203H136C129.373 203 124 197.627 124 191V176Z" fill="white"/>
<path d="M143.045 189H139.278V177.364H143.165C144.305 177.364 145.284 177.597 146.102 178.062C146.92 178.525 147.547 179.189 147.983 180.057C148.422 180.92 148.642 181.956 148.642 183.165C148.642 184.377 148.42 185.419 147.977 186.29C147.538 187.161 146.902 187.831 146.068 188.301C145.235 188.767 144.227 189 143.045 189ZM141.034 187.466H142.949C143.835 187.466 144.572 187.299 145.159 186.966C145.746 186.629 146.186 186.142 146.477 185.506C146.769 184.866 146.915 184.085 146.915 183.165C146.915 182.252 146.769 181.477 146.477 180.841C146.189 180.205 145.759 179.722 145.188 179.392C144.616 179.062 143.905 178.898 143.057 178.898H141.034V187.466ZM154.45 189.176C153.59 189.176 152.85 188.992 152.229 188.625C151.611 188.254 151.134 187.733 150.797 187.062C150.464 186.388 150.297 185.598 150.297 184.693C150.297 183.799 150.464 183.011 150.797 182.33C151.134 181.648 151.604 181.116 152.206 180.733C152.812 180.35 153.52 180.159 154.331 180.159C154.823 180.159 155.301 180.241 155.763 180.403C156.225 180.566 156.64 180.822 157.007 181.17C157.375 181.519 157.664 181.972 157.876 182.528C158.089 183.081 158.195 183.754 158.195 184.545V185.148H151.257V183.875H156.53C156.53 183.428 156.439 183.032 156.257 182.688C156.075 182.339 155.82 182.064 155.49 181.864C155.164 181.663 154.782 181.562 154.342 181.562C153.865 181.562 153.448 181.68 153.092 181.915C152.74 182.146 152.467 182.449 152.274 182.824C152.085 183.195 151.99 183.598 151.99 184.034V185.028C151.99 185.612 152.092 186.108 152.297 186.517C152.505 186.926 152.795 187.239 153.166 187.455C153.537 187.667 153.971 187.773 154.467 187.773C154.789 187.773 155.083 187.727 155.348 187.636C155.613 187.542 155.842 187.402 156.036 187.216C156.229 187.03 156.376 186.801 156.479 186.528L158.087 186.818C157.958 187.292 157.727 187.706 157.393 188.062C157.064 188.415 156.649 188.689 156.149 188.886C155.653 189.08 155.087 189.176 154.45 189.176ZM160.08 192.273V180.273H161.739V181.688H161.881C161.979 181.506 162.121 181.295 162.307 181.057C162.492 180.818 162.75 180.61 163.08 180.432C163.409 180.25 163.845 180.159 164.386 180.159C165.091 180.159 165.72 180.337 166.273 180.693C166.826 181.049 167.259 181.562 167.574 182.233C167.892 182.903 168.051 183.71 168.051 184.653C168.051 185.597 167.894 186.405 167.58 187.08C167.265 187.75 166.833 188.267 166.284 188.631C165.735 188.991 165.108 189.17 164.403 189.17C163.873 189.17 163.439 189.081 163.102 188.903C162.769 188.725 162.508 188.517 162.318 188.278C162.129 188.04 161.983 187.828 161.881 187.642H161.778V192.273H160.08ZM161.744 184.636C161.744 185.25 161.833 185.788 162.011 186.25C162.189 186.712 162.447 187.074 162.784 187.335C163.121 187.593 163.534 187.722 164.023 187.722C164.53 187.722 164.955 187.587 165.295 187.318C165.636 187.045 165.894 186.676 166.068 186.21C166.246 185.744 166.335 185.22 166.335 184.636C166.335 184.061 166.248 183.544 166.074 183.085C165.903 182.627 165.646 182.265 165.301 182C164.96 181.735 164.534 181.602 164.023 181.602C163.53 181.602 163.114 181.729 162.773 181.983C162.436 182.237 162.18 182.591 162.006 183.045C161.831 183.5 161.744 184.03 161.744 184.636ZM173.631 189.176C172.813 189.176 172.098 188.989 171.489 188.614C170.879 188.239 170.405 187.714 170.068 187.04C169.731 186.366 169.562 185.578 169.562 184.676C169.562 183.771 169.731 182.979 170.068 182.301C170.405 181.623 170.879 181.097 171.489 180.722C172.098 180.347 172.813 180.159 173.631 180.159C174.449 180.159 175.163 180.347 175.773 180.722C176.383 181.097 176.856 181.623 177.193 182.301C177.53 182.979 177.699 183.771 177.699 184.676C177.699 185.578 177.53 186.366 177.193 187.04C176.856 187.714 176.383 188.239 175.773 188.614C175.163 188.989 174.449 189.176 173.631 189.176ZM173.636 187.75C174.167 187.75 174.606 187.61 174.955 187.33C175.303 187.049 175.561 186.676 175.727 186.21C175.898 185.744 175.983 185.231 175.983 184.67C175.983 184.114 175.898 183.602 175.727 183.136C175.561 182.667 175.303 182.29 174.955 182.006C174.606 181.722 174.167 181.58 173.636 181.58C173.102 181.58 172.659 181.722 172.307 182.006C171.958 182.29 171.699 182.667 171.528 183.136C171.362 183.602 171.278 184.114 171.278 184.67C171.278 185.231 171.362 185.744 171.528 186.21C171.699 186.676 171.958 187.049 172.307 187.33C172.659 187.61 173.102 187.75 173.636 187.75ZM186.135 182.403L184.595 182.676C184.531 182.479 184.429 182.292 184.288 182.114C184.152 181.936 183.966 181.79 183.732 181.676C183.497 181.562 183.203 181.506 182.851 181.506C182.37 181.506 181.968 181.614 181.646 181.83C181.324 182.042 181.163 182.316 181.163 182.653C181.163 182.945 181.271 183.18 181.487 183.358C181.703 183.536 182.052 183.682 182.533 183.795L183.919 184.114C184.722 184.299 185.321 184.585 185.714 184.972C186.108 185.358 186.305 185.86 186.305 186.477C186.305 187 186.154 187.466 185.851 187.875C185.552 188.28 185.133 188.598 184.595 188.83C184.061 189.061 183.442 189.176 182.737 189.176C181.76 189.176 180.963 188.968 180.345 188.551C179.728 188.131 179.349 187.534 179.209 186.761L180.851 186.511C180.953 186.939 181.163 187.263 181.482 187.483C181.8 187.699 182.214 187.807 182.726 187.807C183.283 187.807 183.728 187.691 184.061 187.46C184.394 187.225 184.561 186.939 184.561 186.602C184.561 186.33 184.459 186.1 184.254 185.915C184.054 185.729 183.745 185.589 183.328 185.494L181.851 185.17C181.036 184.985 180.434 184.689 180.044 184.284C179.658 183.879 179.464 183.366 179.464 182.744C179.464 182.229 179.608 181.778 179.896 181.392C180.184 181.006 180.582 180.705 181.089 180.489C181.597 180.269 182.179 180.159 182.834 180.159C183.777 180.159 184.519 180.364 185.061 180.773C185.603 181.178 185.961 181.722 186.135 182.403ZM188.173 189V180.273H189.872V189H188.173ZM189.031 178.926C188.736 178.926 188.482 178.828 188.27 178.631C188.062 178.43 187.957 178.191 187.957 177.915C187.957 177.634 188.062 177.396 188.27 177.199C188.482 176.998 188.736 176.898 189.031 176.898C189.327 176.898 189.579 176.998 189.787 177.199C189.999 177.396 190.105 177.634 190.105 177.915C190.105 178.191 189.999 178.43 189.787 178.631C189.579 178.828 189.327 178.926 189.031 178.926ZM196.232 180.273V181.636H191.464V180.273H196.232ZM192.743 178.182H194.442V186.438C194.442 186.767 194.491 187.015 194.589 187.182C194.688 187.345 194.815 187.456 194.97 187.517C195.129 187.574 195.302 187.602 195.487 187.602C195.624 187.602 195.743 187.593 195.845 187.574C195.947 187.555 196.027 187.54 196.084 187.528L196.391 188.932C196.292 188.97 196.152 189.008 195.97 189.045C195.788 189.087 195.561 189.11 195.288 189.114C194.841 189.121 194.425 189.042 194.038 188.875C193.652 188.708 193.339 188.451 193.101 188.102C192.862 187.754 192.743 187.316 192.743 186.79V178.182Z" fill="black"/>
<path d="M136 166H199V162H136V166ZM209 176V191H213V176H209ZM199 201H136V205H199V201ZM126 191V176H122V191H126ZM136 201C130.477 201 126 196.523 126 191H122C122 198.732 128.268 205 136 205V201ZM209 191C209 196.523 204.523 201 199 201V205C206.732 205 213 198.732 213 191H209ZM199 166C204.523 166 209 170.477 209 176H213C213 168.268 206.732 162 199 162V166ZM136 162C128.268 162 122 168.268 122 176H126C126 170.477 130.477 166 136 166V162Z" fill="black"/>
</svg>
