<svg width="352" height="222" viewBox="0 0 352 222" fill="none" xmlns="http://www.w3.org/2000/svg">
<path d="M310.039 131.602C303.32 127.969 294.453 125.938 285 125.938C275.547 125.938 266.68 127.969 259.961 131.602C253.242 135.234 249.062 140.625 249.062 146.25V183.75C249.062 189.375 252.93 194.57 259.961 198.398C266.992 202.227 275.547 204.062 285 204.062C294.453 204.062 303.32 202.031 310.039 198.398C316.758 194.766 320.938 189.375 320.938 183.75V146.25C320.938 140.625 317.07 135.43 310.039 131.602ZM261.445 134.375C267.695 130.937 276.094 129.062 285 129.062C293.906 129.062 302.305 130.937 308.555 134.375C314.805 137.812 317.812 141.836 317.812 146.25C317.812 150.664 314.531 154.883 308.555 158.125C302.578 161.367 293.906 163.438 285 163.438C276.094 163.438 267.695 161.563 261.445 158.125C255.195 154.688 252.188 150.664 252.188 146.25C252.188 141.836 255.469 137.617 261.445 134.375ZM317.812 183.75C317.812 188.164 314.531 192.383 308.555 195.625C302.578 198.867 293.906 200.938 285 200.938C276.094 200.938 267.695 199.062 261.445 195.625C255.195 192.187 252.188 188.164 252.188 183.75V173.398C254.023 175.703 256.641 177.813 259.961 179.648C266.68 183.281 275.547 185.312 285 185.312C294.453 185.312 303.32 183.281 310.039 179.648C313.359 177.813 315.977 175.703 317.812 173.398V183.75ZM317.812 165C317.812 169.414 314.531 173.633 308.555 176.875C302.578 180.117 293.906 182.188 285 182.188C276.094 182.188 267.695 180.312 261.445 176.875C255.195 173.437 252.188 169.414 252.188 165V154.648C254.023 156.953 256.641 159.063 259.961 160.898C266.68 164.531 275.547 166.562 285 166.562C294.453 166.562 303.32 164.531 310.039 160.898C313.359 159.063 315.977 156.953 317.812 154.648V165Z" fill="black"/>
<circle cx="325" cy="193" r="27" fill="white"/>
<path d="M325 213.833C313.494 213.833 304.167 204.506 304.167 193C304.167 181.494 313.494 172.167 325 172.167C336.506 172.167 345.833 181.494 345.833 193C345.833 204.506 336.506 213.833 325 213.833ZM325 184.16L316.16 193L325 201.84L333.84 193L325 184.16Z" fill="black"/>
<path d="M89.0625 165C89.0667 158.497 87.4474 152.096 84.3514 146.378C81.2555 140.659 76.7809 135.804 71.3335 132.252C65.8861 128.701 59.6382 126.566 53.1567 126.04C46.6751 125.515 40.1649 126.616 34.2165 129.243C28.2682 131.871 23.0699 135.942 19.0931 141.087C15.1164 146.232 12.4871 152.288 11.4437 158.707C10.4002 165.126 10.9757 171.703 13.1179 177.843C15.2601 183.983 18.9012 189.491 23.7109 193.867C23.8097 193.99 23.9286 194.096 24.0625 194.18C31.2097 200.546 40.4477 204.064 50.0195 204.064C59.5913 204.064 68.8293 200.546 75.9766 194.18L76.2891 193.867C80.3171 190.215 83.5349 185.759 85.735 180.787C87.9351 175.815 89.0687 170.437 89.0625 165V165ZM14.0625 165C14.062 159.093 15.5175 153.278 18.3 148.067C21.0826 142.857 25.1064 138.413 30.0156 135.129C34.9248 131.844 40.5679 129.82 46.4456 129.236C52.3233 128.652 58.2543 129.525 63.714 131.779C69.1737 134.033 73.9936 137.598 77.7473 142.159C81.501 146.719 84.0727 152.135 85.235 157.926C86.3972 163.717 86.114 169.705 84.4106 175.361C82.7072 181.017 79.636 186.165 75.4687 190.352C71.5897 183.853 65.3696 179.087 58.0859 177.031C61.4685 175.228 64.1512 172.345 65.7074 168.842C67.2636 165.339 67.6041 161.416 66.6746 157.697C65.7452 153.978 63.5992 150.677 60.5779 148.318C57.5566 145.958 53.8333 144.677 50 144.677C46.1667 144.677 42.4434 145.958 39.4221 148.318C36.4008 150.677 34.2548 153.978 33.3254 157.697C32.3959 161.416 32.7364 165.339 34.2926 168.842C35.8488 172.345 38.5315 175.228 41.9141 177.031C34.6304 179.087 28.4103 183.853 24.5312 190.352C17.8309 183.615 14.0675 174.501 14.0625 165V165ZM50 175.937C47.2187 175.937 44.4999 175.113 42.1873 173.567C39.8747 172.022 38.0723 169.826 37.0079 167.256C35.9436 164.687 35.6651 161.859 36.2077 159.131C36.7503 156.404 38.0896 153.898 40.0563 151.931C42.023 149.965 44.5287 148.625 47.2565 148.083C49.9844 147.54 52.8119 147.819 55.3815 148.883C57.9511 149.947 60.1473 151.75 61.6925 154.062C63.2377 156.375 64.0625 159.094 64.0625 161.875C64.0625 165.605 62.5809 169.181 59.9437 171.819C57.3065 174.456 53.7296 175.937 50 175.937V175.937ZM26.9141 192.5C29.2341 188.423 32.5923 185.033 36.6473 182.676C40.7022 180.318 45.3093 179.075 50 179.075C54.6907 179.075 59.2977 180.318 63.3527 182.676C67.4077 185.033 70.7659 188.423 73.0859 192.5C66.6258 197.945 58.4489 200.932 50 200.932C41.5511 200.932 33.3742 197.945 26.9141 192.5V192.5Z" fill="black"/>
<circle cx="90" cy="193" r="27" fill="white"/>
<path d="M90 171.125C85.6735 171.125 81.4442 172.408 77.8469 174.812C74.2496 177.215 71.4458 180.632 69.7901 184.629C68.1345 188.626 67.7013 193.024 68.5453 197.268C69.3894 201.511 71.4728 205.409 74.532 208.468C77.5913 211.527 81.4891 213.611 85.7324 214.455C89.9757 215.299 94.3741 214.866 98.3712 213.21C102.368 211.554 105.785 208.75 108.188 205.153C110.592 201.556 111.875 197.326 111.875 193C111.875 187.198 109.57 181.634 105.468 177.532C101.366 173.43 95.8016 171.125 90 171.125ZM86.875 201.734L79.0625 193.922L81.5469 191.438L86.875 196.766L98.4531 185.188L100.947 187.666L86.875 201.734Z" fill="black"/>
<path d="M89.0625 50C89.0667 43.4972 87.4474 37.0962 84.3514 31.3776C81.2555 25.659 76.7809 20.8039 71.3335 17.2524C65.8861 13.701 59.6382 11.5657 53.1567 11.0402C46.6751 10.5147 40.1649 11.6156 34.2165 14.2431C28.2682 16.8707 23.0699 20.9416 19.0931 26.0868C15.1164 31.2319 12.4871 37.2885 11.4437 43.707C10.4002 50.1256 10.9757 56.7031 13.1179 62.843C15.2601 68.9829 18.9012 74.4908 23.7109 78.8672C23.8097 78.9904 23.9286 79.096 24.0625 79.1797C31.2097 85.5465 40.4477 89.0645 50.0195 89.0645C59.5913 89.0645 68.8293 85.5465 75.9766 79.1797L76.2891 78.8672C80.3171 75.2152 83.5349 70.7594 85.735 65.7873C87.9351 60.8152 89.0687 55.4371 89.0625 50V50ZM14.0625 50C14.062 44.0934 15.5175 38.2776 18.3 33.0675C21.0826 27.8573 25.1064 23.4133 30.0156 20.1286C34.9248 16.844 40.5679 14.8201 46.4456 14.2359C52.3233 13.6517 58.2543 14.5252 63.714 16.7792C69.1737 19.0333 73.9936 22.5983 77.7473 27.1588C81.501 31.7193 84.0727 37.1347 85.235 42.9259C86.3972 48.7171 86.114 54.7055 84.4106 60.3612C82.7072 66.0169 79.636 71.1655 75.4687 75.3516C71.5897 68.8531 65.3696 64.0867 58.0859 62.0313C61.4685 60.2279 64.1512 57.3455 65.7074 53.8423C67.2636 50.3391 67.6041 46.4162 66.6746 42.6973C65.7452 38.9784 63.5992 35.6769 60.5779 33.3177C57.5566 30.9585 53.8333 29.6771 50 29.6771C46.1667 29.6771 42.4434 30.9585 39.4221 33.3177C36.4008 35.6769 34.2548 38.9784 33.3254 42.6973C32.3959 46.4162 32.7364 50.3391 34.2926 53.8423C35.8488 57.3455 38.5315 60.2279 41.9141 62.0313C34.6304 64.0867 28.4103 68.8531 24.5312 75.3516C17.8309 68.615 14.0675 59.5014 14.0625 50V50ZM50 60.9375C47.2187 60.9375 44.4999 60.1128 42.1873 58.5676C39.8747 57.0223 38.0723 54.8261 37.0079 52.2565C35.9436 49.6869 35.6651 46.8594 36.2077 44.1316C36.7503 41.4037 38.0896 38.898 40.0563 36.9313C42.023 34.9646 44.5287 33.6253 47.2565 33.0827C49.9844 32.5401 52.8119 32.8186 55.3815 33.883C57.9511 34.9473 60.1473 36.7497 61.6925 39.0623C63.2377 41.3749 64.0625 44.0937 64.0625 46.875C64.0625 50.6046 62.5809 54.1815 59.9437 56.8187C57.3065 59.4559 53.7296 60.9375 50 60.9375V60.9375ZM26.9141 77.5C29.2341 73.4232 32.5923 70.0335 36.6473 67.6756C40.7022 65.3176 45.3093 64.0755 50 64.0755C54.6907 64.0755 59.2977 65.3176 63.3527 67.6756C67.4077 70.0335 70.7659 73.4232 73.0859 77.5C66.6258 82.9453 58.4489 85.9317 50 85.9317C41.5511 85.9317 33.3742 82.9453 26.9141 77.5V77.5Z" fill="#D9D9D9"/>
<circle cx="90" cy="79" r="27" fill="white"/>
<path d="M90 57.125C77.8125 57.125 68.125 66.8125 68.125 79C68.125 91.1875 77.8125 100.875 90 100.875C102.188 100.875 111.875 91.1875 111.875 79C111.875 66.8125 102.188 57.125 90 57.125ZM98.4375 89.9375L90 81.5L81.5625 89.9375L79.0625 87.4375L87.5 79L79.0625 70.5625L81.5625 68.0625L90 76.5L98.4375 68.0625L100.938 70.5625L92.5 79L100.938 87.4375L98.4375 89.9375Z" fill="#D9D9D9"/>
<path d="M236.061 166.061C236.646 165.475 236.646 164.525 236.061 163.939L226.515 154.393C225.929 153.808 224.979 153.808 224.393 154.393C223.808 154.979 223.808 155.929 224.393 156.515L232.879 165L224.393 173.485C223.808 174.071 223.808 175.021 224.393 175.607C224.979 176.192 225.929 176.192 226.515 175.607L236.061 166.061ZM100 53.5H147.5V50.5H100V53.5ZM166 72V145H169V72H166ZM187.5 166.5H235V163.5H187.5V166.5ZM166 145C166 156.874 175.626 166.5 187.5 166.5V163.5C177.283 163.5 169 155.217 169 145H166ZM147.5 53.5C157.717 53.5 166 61.7827 166 72H169C169 60.1259 159.374 50.5 147.5 50.5V53.5Z" fill="#D9D9D9"/>
<path d="M236.061 166.061C236.646 165.475 236.646 164.525 236.061 163.939L226.515 154.393C225.929 153.808 224.979 153.808 224.393 154.393C223.808 154.979 223.808 155.929 224.393 156.515L232.879 165L224.393 173.485C223.808 174.071 223.808 175.021 224.393 175.607C224.979 176.192 225.929 176.192 226.515 175.607L236.061 166.061ZM100 166.5H235V163.5H100V166.5Z" fill="#3E3E3E"/>
<path d="M124 157C124 150.373 129.373 145 136 145H199C205.627 145 211 150.373 211 157V172C211 178.627 205.627 184 199 184H136C129.373 184 124 178.627 124 172V157Z" fill="white"/>
<path d="M143.045 170H139.278V158.364H143.165C144.305 158.364 145.284 158.597 146.102 159.062C146.92 159.525 147.547 160.189 147.983 161.057C148.422 161.92 148.642 162.956 148.642 164.165C148.642 165.377 148.42 166.419 147.977 167.29C147.538 168.161 146.902 168.831 146.068 169.301C145.235 169.767 144.227 170 143.045 170ZM141.034 168.466H142.949C143.835 168.466 144.572 168.299 145.159 167.966C145.746 167.629 146.186 167.142 146.477 166.506C146.769 165.866 146.915 165.085 146.915 164.165C146.915 163.252 146.769 162.477 146.477 161.841C146.189 161.205 145.759 160.722 145.188 160.392C144.616 160.062 143.905 159.898 143.057 159.898H141.034V168.466ZM154.45 170.176C153.59 170.176 152.85 169.992 152.229 169.625C151.611 169.254 151.134 168.733 150.797 168.062C150.464 167.388 150.297 166.598 150.297 165.693C150.297 164.799 150.464 164.011 150.797 163.33C151.134 162.648 151.604 162.116 152.206 161.733C152.812 161.35 153.52 161.159 154.331 161.159C154.823 161.159 155.301 161.241 155.763 161.403C156.225 161.566 156.64 161.822 157.007 162.17C157.375 162.519 157.664 162.972 157.876 163.528C158.089 164.081 158.195 164.754 158.195 165.545V166.148H151.257V164.875H156.53C156.53 164.428 156.439 164.032 156.257 163.688C156.075 163.339 155.82 163.064 155.49 162.864C155.164 162.663 154.782 162.562 154.342 162.562C153.865 162.562 153.448 162.68 153.092 162.915C152.74 163.146 152.467 163.449 152.274 163.824C152.085 164.195 151.99 164.598 151.99 165.034V166.028C151.99 166.612 152.092 167.108 152.297 167.517C152.505 167.926 152.795 168.239 153.166 168.455C153.537 168.667 153.971 168.773 154.467 168.773C154.789 168.773 155.083 168.727 155.348 168.636C155.613 168.542 155.842 168.402 156.036 168.216C156.229 168.03 156.376 167.801 156.479 167.528L158.087 167.818C157.958 168.292 157.727 168.706 157.393 169.062C157.064 169.415 156.649 169.689 156.149 169.886C155.653 170.08 155.087 170.176 154.45 170.176ZM160.08 173.273V161.273H161.739V162.688H161.881C161.979 162.506 162.121 162.295 162.307 162.057C162.492 161.818 162.75 161.61 163.08 161.432C163.409 161.25 163.845 161.159 164.386 161.159C165.091 161.159 165.72 161.337 166.273 161.693C166.826 162.049 167.259 162.562 167.574 163.233C167.892 163.903 168.051 164.71 168.051 165.653C168.051 166.597 167.894 167.405 167.58 168.08C167.265 168.75 166.833 169.267 166.284 169.631C165.735 169.991 165.108 170.17 164.403 170.17C163.873 170.17 163.439 170.081 163.102 169.903C162.769 169.725 162.508 169.517 162.318 169.278C162.129 169.04 161.983 168.828 161.881 168.642H161.778V173.273H160.08ZM161.744 165.636C161.744 166.25 161.833 166.788 162.011 167.25C162.189 167.712 162.447 168.074 162.784 168.335C163.121 168.593 163.534 168.722 164.023 168.722C164.53 168.722 164.955 168.587 165.295 168.318C165.636 168.045 165.894 167.676 166.068 167.21C166.246 166.744 166.335 166.22 166.335 165.636C166.335 165.061 166.248 164.544 166.074 164.085C165.903 163.627 165.646 163.265 165.301 163C164.96 162.735 164.534 162.602 164.023 162.602C163.53 162.602 163.114 162.729 162.773 162.983C162.436 163.237 162.18 163.591 162.006 164.045C161.831 164.5 161.744 165.03 161.744 165.636ZM173.631 170.176C172.813 170.176 172.098 169.989 171.489 169.614C170.879 169.239 170.405 168.714 170.068 168.04C169.731 167.366 169.562 166.578 169.562 165.676C169.562 164.771 169.731 163.979 170.068 163.301C170.405 162.623 170.879 162.097 171.489 161.722C172.098 161.347 172.813 161.159 173.631 161.159C174.449 161.159 175.163 161.347 175.773 161.722C176.383 162.097 176.856 162.623 177.193 163.301C177.53 163.979 177.699 164.771 177.699 165.676C177.699 166.578 177.53 167.366 177.193 168.04C176.856 168.714 176.383 169.239 175.773 169.614C175.163 169.989 174.449 170.176 173.631 170.176ZM173.636 168.75C174.167 168.75 174.606 168.61 174.955 168.33C175.303 168.049 175.561 167.676 175.727 167.21C175.898 166.744 175.983 166.231 175.983 165.67C175.983 165.114 175.898 164.602 175.727 164.136C175.561 163.667 175.303 163.29 174.955 163.006C174.606 162.722 174.167 162.58 173.636 162.58C173.102 162.58 172.659 162.722 172.307 163.006C171.958 163.29 171.699 163.667 171.528 164.136C171.362 164.602 171.278 165.114 171.278 165.67C171.278 166.231 171.362 166.744 171.528 167.21C171.699 167.676 171.958 168.049 172.307 168.33C172.659 168.61 173.102 168.75 173.636 168.75ZM186.135 163.403L184.595 163.676C184.531 163.479 184.429 163.292 184.288 163.114C184.152 162.936 183.966 162.79 183.732 162.676C183.497 162.562 183.203 162.506 182.851 162.506C182.37 162.506 181.968 162.614 181.646 162.83C181.324 163.042 181.163 163.316 181.163 163.653C181.163 163.945 181.271 164.18 181.487 164.358C181.703 164.536 182.052 164.682 182.533 164.795L183.919 165.114C184.722 165.299 185.321 165.585 185.714 165.972C186.108 166.358 186.305 166.86 186.305 167.477C186.305 168 186.154 168.466 185.851 168.875C185.552 169.28 185.133 169.598 184.595 169.83C184.061 170.061 183.442 170.176 182.737 170.176C181.76 170.176 180.963 169.968 180.345 169.551C179.728 169.131 179.349 168.534 179.209 167.761L180.851 167.511C180.953 167.939 181.163 168.263 181.482 168.483C181.8 168.699 182.214 168.807 182.726 168.807C183.283 168.807 183.728 168.691 184.061 168.46C184.394 168.225 184.561 167.939 184.561 167.602C184.561 167.33 184.459 167.1 184.254 166.915C184.054 166.729 183.745 166.589 183.328 166.494L181.851 166.17C181.036 165.985 180.434 165.689 180.044 165.284C179.658 164.879 179.464 164.366 179.464 163.744C179.464 163.229 179.608 162.778 179.896 162.392C180.184 162.006 180.582 161.705 181.089 161.489C181.597 161.269 182.179 161.159 182.834 161.159C183.777 161.159 184.519 161.364 185.061 161.773C185.603 162.178 185.961 162.722 186.135 163.403ZM188.173 170V161.273H189.872V170H188.173ZM189.031 159.926C188.736 159.926 188.482 159.828 188.27 159.631C188.062 159.43 187.957 159.191 187.957 158.915C187.957 158.634 188.062 158.396 188.27 158.199C188.482 157.998 188.736 157.898 189.031 157.898C189.327 157.898 189.579 157.998 189.787 158.199C189.999 158.396 190.105 158.634 190.105 158.915C190.105 159.191 189.999 159.43 189.787 159.631C189.579 159.828 189.327 159.926 189.031 159.926ZM196.232 161.273V162.636H191.464V161.273H196.232ZM192.743 159.182H194.442V167.438C194.442 167.767 194.491 168.015 194.589 168.182C194.688 168.345 194.815 168.456 194.97 168.517C195.129 168.574 195.302 168.602 195.487 168.602C195.624 168.602 195.743 168.593 195.845 168.574C195.947 168.555 196.027 168.54 196.084 168.528L196.391 169.932C196.292 169.97 196.152 170.008 195.97 170.045C195.788 170.087 195.561 170.11 195.288 170.114C194.841 170.121 194.425 170.042 194.038 169.875C193.652 169.708 193.339 169.451 193.101 169.102C192.862 168.754 192.743 168.316 192.743 167.79V159.182Z" fill="black"/>
<path d="M136 146H199V144H136V146ZM210 157V172H212V157H210ZM199 183H136V185H199V183ZM125 172V157H123V172H125ZM136 183C129.925 183 125 178.075 125 172H123C123 179.18 128.82 185 136 185V183ZM210 172C210 178.075 205.075 183 199 183V185C206.18 185 212 179.18 212 172H210ZM199 146C205.075 146 210 150.925 210 157H212C212 149.82 206.18 144 199 144V146ZM136 144C128.82 144 123 149.82 123 157H125C125 150.925 129.925 146 136 146V144Z" fill="black"/>
</svg>
