<svg width="335" height="244" viewBox="0 0 335 244" fill="none" xmlns="http://www.w3.org/2000/svg">
<path d="M254.444 156.056V161.861C264.438 164.333 274.706 165.519 285 165.389C290.755 165.381 296.505 165.047 302.222 164.389C300.926 162.811 299.868 161.052 299.083 159.167C294.917 159.583 290.194 159.833 285 159.833C274.684 160.091 264.387 158.817 254.444 156.056Z" fill="black"/>
<path d="M321.111 171.806V174.083C320.194 176.472 307.056 180.889 285 180.889C274.684 181.152 264.386 179.879 254.444 177.111V182.889C264.436 185.376 274.705 186.571 285 186.444C296.111 186.444 312.583 185.111 321.111 180.889V195.25C320.194 197.639 307.056 202.056 285 202.056C274.678 202.283 264.38 200.972 254.444 198.167V203.944C264.436 206.432 274.705 207.627 285 207.5C296.111 207.5 312.583 206.167 321.111 201.944V216.111C320.139 218.5 307 222.917 285 222.917C263 222.917 249.722 218.389 248.889 216.083V153.444C249.722 151.167 262.778 146.611 285 146.611C289.722 146.611 294.028 146.833 297.889 147.167C298.257 145.293 298.884 143.479 299.75 141.778C294.528 141.278 289.333 141.056 285 141.056C269.528 141.056 243.333 143.639 243.333 153.361V216.083C243.333 225.778 269.528 228.389 285 228.389C300.472 228.389 326.667 225.806 326.667 216.083V170.25C324.897 171.025 323.027 171.549 321.111 171.806Z" fill="black"/>
<path d="M318.333 165.056C326.004 165.056 332.222 158.837 332.222 151.167C332.222 143.496 326.004 137.278 318.333 137.278C310.663 137.278 304.444 143.496 304.444 151.167C304.444 158.837 310.663 165.056 318.333 165.056Z" fill="black"/>
<path d="M50 159.5C46.9097 159.5 43.8887 160.416 41.3192 162.133C38.7497 163.85 36.747 166.29 35.5644 169.146C34.3818 172.001 34.0723 175.142 34.6752 178.173C35.2781 181.204 36.7663 183.988 38.9515 186.174C41.1367 188.359 43.9208 189.847 46.9517 190.45C49.9827 191.053 53.1243 190.743 55.9794 189.561C58.8345 188.378 61.2748 186.375 62.9917 183.806C64.7086 181.236 65.625 178.215 65.625 175.125C65.625 170.981 63.9788 167.007 61.0486 164.076C58.1183 161.146 54.144 159.5 50 159.5Z" fill="black"/>
<path d="M50 140.75C41.3471 140.75 32.8885 143.316 25.6938 148.123C18.4992 152.931 12.8916 159.763 9.58029 167.758C6.26896 175.752 5.40256 184.549 7.09066 193.035C8.77877 201.522 12.9456 209.317 19.0641 215.436C25.1826 221.554 32.9782 225.721 41.4648 227.409C49.9515 229.097 58.7482 228.231 66.7424 224.92C74.7367 221.608 81.5695 216.001 86.3768 208.806C91.1841 201.612 93.75 193.153 93.75 184.5C93.7368 172.901 89.1232 161.781 80.9213 153.579C72.7195 145.377 61.5992 140.763 50 140.75ZM74.975 212.394C74.9127 208.295 73.2427 204.384 70.3247 201.505C67.4068 198.626 63.4744 197.008 59.375 197H40.625C36.5256 197.008 32.5933 198.626 29.6753 201.505C26.7573 204.384 25.0873 208.295 25.025 212.394C19.358 207.334 15.3617 200.671 13.5651 193.29C11.7686 185.908 12.2566 178.154 14.9645 171.056C17.6724 163.957 22.4726 157.849 28.7293 153.539C34.986 149.23 42.4042 146.922 50.0016 146.922C57.599 146.922 65.0171 149.23 71.2739 153.539C77.5306 157.849 82.3307 163.957 85.0387 171.056C87.7466 178.154 88.2346 185.908 86.438 193.29C84.6415 200.671 80.6451 207.334 74.9781 212.394H74.975Z" fill="black"/>
<circle cx="90" cy="216.5" r="27" fill="white"/>
<path d="M90 194.625C85.6735 194.625 81.4442 195.908 77.8469 198.312C74.2496 200.715 71.4458 204.132 69.7901 208.129C68.1345 212.126 67.7013 216.524 68.5453 220.768C69.3894 225.011 71.4728 228.909 74.532 231.968C77.5913 235.027 81.4891 237.111 85.7324 237.955C89.9757 238.799 94.3741 238.366 98.3712 236.71C102.368 235.054 105.785 232.25 108.188 228.653C110.592 225.056 111.875 220.826 111.875 216.5C111.875 210.698 109.57 205.134 105.468 201.032C101.366 196.93 95.8016 194.625 90 194.625ZM86.875 225.234L79.0625 217.422L81.5469 214.938L86.875 220.266L98.4531 208.688L100.947 211.166L86.875 225.234Z" fill="black"/>
<path d="M50 35.5C46.9097 35.5 43.8887 36.4164 41.3192 38.1333C38.7497 39.8502 36.747 42.2905 35.5644 45.1456C34.3818 48.0007 34.0723 51.1423 34.6752 54.1733C35.2781 57.2042 36.7663 59.9883 38.9515 62.1735C41.1367 64.3587 43.9208 65.8469 46.9517 66.4498C49.9827 67.0527 53.1243 66.7432 55.9794 65.5606C58.8345 64.378 61.2748 62.3753 62.9917 59.8058C64.7086 57.2363 65.625 54.2153 65.625 51.125C65.625 46.981 63.9788 43.0067 61.0486 40.0765C58.1183 37.1462 54.144 35.5 50 35.5Z" fill="#D9D9D9"/>
<path d="M50 16.75C41.3471 16.75 32.8885 19.3159 25.6938 24.1232C18.4992 28.9305 12.8916 35.7633 9.58029 43.7576C6.26896 51.7519 5.40256 60.5485 7.09066 69.0352C8.77877 77.5219 12.9456 85.3174 19.0641 91.4359C25.1826 97.5545 32.9782 101.721 41.4648 103.409C49.9515 105.097 58.7482 104.231 66.7424 100.92C74.7367 97.6084 81.5695 92.0008 86.3768 84.8062C91.1841 77.6115 93.75 69.1529 93.75 60.5C93.7368 48.9008 89.1232 37.7805 80.9213 29.5787C72.7195 21.3768 61.5992 16.7632 50 16.75ZM74.975 88.3938C74.9127 84.2948 73.2427 80.3843 70.3247 77.505C67.4068 74.6256 63.4744 73.0077 59.375 73H40.625C36.5256 73.0077 32.5933 74.6256 29.6753 77.505C26.7573 80.3843 25.0873 84.2948 25.025 88.3938C19.358 83.3336 15.3617 76.6715 13.5651 69.2896C11.7686 61.9077 12.2566 54.1542 14.9645 47.0558C17.6724 39.9574 22.4726 33.849 28.7293 29.5393C34.986 25.2296 42.4042 22.922 50.0016 22.922C57.599 22.922 65.0171 25.2296 71.2739 29.5393C77.5306 33.849 82.3307 39.9574 85.0387 47.0558C87.7466 54.1542 88.2346 61.9077 86.438 69.2896C84.6415 76.6715 80.6451 83.3336 74.9781 88.3938H74.975Z" fill="#D9D9D9"/>
<circle cx="90" cy="92.5" r="27" fill="white"/>
<path d="M90 70.625C77.8125 70.625 68.125 80.3125 68.125 92.5C68.125 104.688 77.8125 114.375 90 114.375C102.188 114.375 111.875 104.688 111.875 92.5C111.875 80.3125 102.188 70.625 90 70.625ZM98.4375 103.438L90 95L81.5625 103.438L79.0625 100.938L87.5 92.5L79.0625 84.0625L81.5625 81.5625L90 90L98.4375 81.5625L100.938 84.0625L92.5 92.5L100.938 100.938L98.4375 103.438Z" fill="#D9D9D9"/>
<path d="M236.061 185.561C236.646 184.975 236.646 184.025 236.061 183.439L226.515 173.893C225.929 173.308 224.979 173.308 224.393 173.893C223.808 174.479 223.808 175.429 224.393 176.015L232.879 184.5L224.393 192.985C223.808 193.571 223.808 194.521 224.393 195.107C224.979 195.692 225.929 195.692 226.515 195.107L236.061 185.561ZM100 61H147.5V58H100V61ZM166 79.5V164.5H169V79.5H166ZM187.5 186H235V183H187.5V186ZM166 164.5C166 176.374 175.626 186 187.5 186V183C177.283 183 169 174.717 169 164.5H166ZM147.5 61C157.717 61 166 69.2827 166 79.5H169C169 67.6259 159.374 58 147.5 58V61Z" fill="#D9D9D9"/>
<path d="M236.061 185.561C236.646 184.975 236.646 184.025 236.061 183.439L226.515 173.893C225.929 173.308 224.979 173.308 224.393 173.893C223.808 174.479 223.808 175.429 224.393 176.015L232.879 184.5L224.393 192.985C223.808 193.571 223.808 194.521 224.393 195.107C224.979 195.692 225.929 195.692 226.515 195.107L236.061 185.561ZM100 186H235V183H100V186Z" fill="#3E3E3E"/>
<path d="M124 176.5C124 169.873 129.373 164.5 136 164.5H199C205.627 164.5 211 169.873 211 176.5V191.5C211 198.127 205.627 203.5 199 203.5H136C129.373 203.5 124 198.127 124 191.5V176.5Z" fill="white"/>
<path d="M143.045 189.5H139.278V177.864H143.165C144.305 177.864 145.284 178.097 146.102 178.562C146.92 179.025 147.547 179.689 147.983 180.557C148.422 181.42 148.642 182.456 148.642 183.665C148.642 184.877 148.42 185.919 147.977 186.79C147.538 187.661 146.902 188.331 146.068 188.801C145.235 189.267 144.227 189.5 143.045 189.5ZM141.034 187.966H142.949C143.835 187.966 144.572 187.799 145.159 187.466C145.746 187.129 146.186 186.642 146.477 186.006C146.769 185.366 146.915 184.585 146.915 183.665C146.915 182.752 146.769 181.977 146.477 181.341C146.189 180.705 145.759 180.222 145.188 179.892C144.616 179.562 143.905 179.398 143.057 179.398H141.034V187.966ZM154.45 189.676C153.59 189.676 152.85 189.492 152.229 189.125C151.611 188.754 151.134 188.233 150.797 187.562C150.464 186.888 150.297 186.098 150.297 185.193C150.297 184.299 150.464 183.511 150.797 182.83C151.134 182.148 151.604 181.616 152.206 181.233C152.812 180.85 153.52 180.659 154.331 180.659C154.823 180.659 155.301 180.741 155.763 180.903C156.225 181.066 156.64 181.322 157.007 181.67C157.375 182.019 157.664 182.472 157.876 183.028C158.089 183.581 158.195 184.254 158.195 185.045V185.648H151.257V184.375H156.53C156.53 183.928 156.439 183.532 156.257 183.188C156.075 182.839 155.82 182.564 155.49 182.364C155.164 182.163 154.782 182.062 154.342 182.062C153.865 182.062 153.448 182.18 153.092 182.415C152.74 182.646 152.467 182.949 152.274 183.324C152.085 183.695 151.99 184.098 151.99 184.534V185.528C151.99 186.112 152.092 186.608 152.297 187.017C152.505 187.426 152.795 187.739 153.166 187.955C153.537 188.167 153.971 188.273 154.467 188.273C154.789 188.273 155.083 188.227 155.348 188.136C155.613 188.042 155.842 187.902 156.036 187.716C156.229 187.53 156.376 187.301 156.479 187.028L158.087 187.318C157.958 187.792 157.727 188.206 157.393 188.562C157.064 188.915 156.649 189.189 156.149 189.386C155.653 189.58 155.087 189.676 154.45 189.676ZM160.08 192.773V180.773H161.739V182.188H161.881C161.979 182.006 162.121 181.795 162.307 181.557C162.492 181.318 162.75 181.11 163.08 180.932C163.409 180.75 163.845 180.659 164.386 180.659C165.091 180.659 165.72 180.837 166.273 181.193C166.826 181.549 167.259 182.062 167.574 182.733C167.892 183.403 168.051 184.21 168.051 185.153C168.051 186.097 167.894 186.905 167.58 187.58C167.265 188.25 166.833 188.767 166.284 189.131C165.735 189.491 165.108 189.67 164.403 189.67C163.873 189.67 163.439 189.581 163.102 189.403C162.769 189.225 162.508 189.017 162.318 188.778C162.129 188.54 161.983 188.328 161.881 188.142H161.778V192.773H160.08ZM161.744 185.136C161.744 185.75 161.833 186.288 162.011 186.75C162.189 187.212 162.447 187.574 162.784 187.835C163.121 188.093 163.534 188.222 164.023 188.222C164.53 188.222 164.955 188.087 165.295 187.818C165.636 187.545 165.894 187.176 166.068 186.71C166.246 186.244 166.335 185.72 166.335 185.136C166.335 184.561 166.248 184.044 166.074 183.585C165.903 183.127 165.646 182.765 165.301 182.5C164.96 182.235 164.534 182.102 164.023 182.102C163.53 182.102 163.114 182.229 162.773 182.483C162.436 182.737 162.18 183.091 162.006 183.545C161.831 184 161.744 184.53 161.744 185.136ZM173.631 189.676C172.813 189.676 172.098 189.489 171.489 189.114C170.879 188.739 170.405 188.214 170.068 187.54C169.731 186.866 169.562 186.078 169.562 185.176C169.562 184.271 169.731 183.479 170.068 182.801C170.405 182.123 170.879 181.597 171.489 181.222C172.098 180.847 172.813 180.659 173.631 180.659C174.449 180.659 175.163 180.847 175.773 181.222C176.383 181.597 176.856 182.123 177.193 182.801C177.53 183.479 177.699 184.271 177.699 185.176C177.699 186.078 177.53 186.866 177.193 187.54C176.856 188.214 176.383 188.739 175.773 189.114C175.163 189.489 174.449 189.676 173.631 189.676ZM173.636 188.25C174.167 188.25 174.606 188.11 174.955 187.83C175.303 187.549 175.561 187.176 175.727 186.71C175.898 186.244 175.983 185.731 175.983 185.17C175.983 184.614 175.898 184.102 175.727 183.636C175.561 183.167 175.303 182.79 174.955 182.506C174.606 182.222 174.167 182.08 173.636 182.08C173.102 182.08 172.659 182.222 172.307 182.506C171.958 182.79 171.699 183.167 171.528 183.636C171.362 184.102 171.278 184.614 171.278 185.17C171.278 185.731 171.362 186.244 171.528 186.71C171.699 187.176 171.958 187.549 172.307 187.83C172.659 188.11 173.102 188.25 173.636 188.25ZM186.135 182.903L184.595 183.176C184.531 182.979 184.429 182.792 184.288 182.614C184.152 182.436 183.966 182.29 183.732 182.176C183.497 182.062 183.203 182.006 182.851 182.006C182.37 182.006 181.968 182.114 181.646 182.33C181.324 182.542 181.163 182.816 181.163 183.153C181.163 183.445 181.271 183.68 181.487 183.858C181.703 184.036 182.052 184.182 182.533 184.295L183.919 184.614C184.722 184.799 185.321 185.085 185.714 185.472C186.108 185.858 186.305 186.36 186.305 186.977C186.305 187.5 186.154 187.966 185.851 188.375C185.552 188.78 185.133 189.098 184.595 189.33C184.061 189.561 183.442 189.676 182.737 189.676C181.76 189.676 180.963 189.468 180.345 189.051C179.728 188.631 179.349 188.034 179.209 187.261L180.851 187.011C180.953 187.439 181.163 187.763 181.482 187.983C181.8 188.199 182.214 188.307 182.726 188.307C183.283 188.307 183.728 188.191 184.061 187.96C184.394 187.725 184.561 187.439 184.561 187.102C184.561 186.83 184.459 186.6 184.254 186.415C184.054 186.229 183.745 186.089 183.328 185.994L181.851 185.67C181.036 185.485 180.434 185.189 180.044 184.784C179.658 184.379 179.464 183.866 179.464 183.244C179.464 182.729 179.608 182.278 179.896 181.892C180.184 181.506 180.582 181.205 181.089 180.989C181.597 180.769 182.179 180.659 182.834 180.659C183.777 180.659 184.519 180.864 185.061 181.273C185.603 181.678 185.961 182.222 186.135 182.903ZM188.173 189.5V180.773H189.872V189.5H188.173ZM189.031 179.426C188.736 179.426 188.482 179.328 188.27 179.131C188.062 178.93 187.957 178.691 187.957 178.415C187.957 178.134 188.062 177.896 188.27 177.699C188.482 177.498 188.736 177.398 189.031 177.398C189.327 177.398 189.579 177.498 189.787 177.699C189.999 177.896 190.105 178.134 190.105 178.415C190.105 178.691 189.999 178.93 189.787 179.131C189.579 179.328 189.327 179.426 189.031 179.426ZM196.232 180.773V182.136H191.464V180.773H196.232ZM192.743 178.682H194.442V186.938C194.442 187.267 194.491 187.515 194.589 187.682C194.688 187.845 194.815 187.956 194.97 188.017C195.129 188.074 195.302 188.102 195.487 188.102C195.624 188.102 195.743 188.093 195.845 188.074C195.947 188.055 196.027 188.04 196.084 188.028L196.391 189.432C196.292 189.47 196.152 189.508 195.97 189.545C195.788 189.587 195.561 189.61 195.288 189.614C194.841 189.621 194.425 189.542 194.038 189.375C193.652 189.208 193.339 188.951 193.101 188.602C192.862 188.254 192.743 187.816 192.743 187.29V178.682Z" fill="black"/>
<path d="M136 166.5H199V162.5H136V166.5ZM209 176.5V191.5H213V176.5H209ZM199 201.5H136V205.5H199V201.5ZM126 191.5V176.5H122V191.5H126ZM136 201.5C130.477 201.5 126 197.023 126 191.5H122C122 199.232 128.268 205.5 136 205.5V201.5ZM209 191.5C209 197.023 204.523 201.5 199 201.5V205.5C206.732 205.5 213 199.232 213 191.5H209ZM199 166.5C204.523 166.5 209 170.977 209 176.5H213C213 168.768 206.732 162.5 199 162.5V166.5ZM136 162.5C128.268 162.5 122 168.768 122 176.5H126C126 170.977 130.477 166.5 136 166.5V162.5Z" fill="black"/>
</svg>
