<svg width="395" height="220" viewBox="0 0 395 220" fill="none" xmlns="http://www.w3.org/2000/svg">
<path d="M89.0625 50.5C89.0667 43.9971 87.4474 37.5961 84.3514 31.8776C81.2555 26.159 76.7809 21.3038 71.3335 17.7524C65.8861 14.2009 59.6382 12.0656 53.1567 11.5401C46.6751 11.0146 40.1649 12.1156 34.2165 14.7431C28.2682 17.3706 23.0699 21.4416 19.0931 26.5867C15.1164 31.7319 12.4871 37.7884 11.4437 44.207C10.4002 50.6255 10.9757 57.2031 13.1179 63.3429C15.2601 69.4828 18.9012 74.9907 23.7109 79.3671C23.8097 79.4903 23.9286 79.5959 24.0625 79.6796C31.2097 86.0465 40.4477 89.5644 50.0195 89.5644C59.5913 89.5644 68.8293 86.0465 75.9766 79.6796L76.2891 79.3671C80.3171 75.7151 83.5349 71.2593 85.735 66.2872C87.9351 61.3151 89.0687 55.9371 89.0625 50.5V50.5ZM14.0625 50.5C14.062 44.5933 15.5175 38.7776 18.3 33.5674C21.0826 28.3572 25.1064 23.9132 30.0156 20.6286C34.9248 17.344 40.5679 15.32 46.4456 14.7358C52.3233 14.1516 58.2543 15.0252 63.714 17.2792C69.1737 19.5332 73.9936 23.0982 77.7473 27.6587C81.501 32.2192 84.0727 37.6347 85.235 43.4259C86.3972 49.2171 86.114 55.2054 84.4106 60.8611C82.7072 66.5168 79.636 71.6655 75.4687 75.8515C71.5897 69.3531 65.3696 64.5866 58.0859 62.5312C61.4685 60.7278 64.1512 57.8454 65.7074 54.3422C67.2636 50.839 67.6041 46.9161 66.6746 43.1972C65.7452 39.4783 63.5992 36.1768 60.5779 33.8177C57.5566 31.4585 53.8333 30.177 50 30.177C46.1667 30.177 42.4434 31.4585 39.4221 33.8177C36.4008 36.1768 34.2548 39.4783 33.3254 43.1972C32.3959 46.9161 32.7364 50.839 34.2926 54.3422C35.8488 57.8454 38.5315 60.7278 41.9141 62.5312C34.6304 64.5866 28.4103 69.3531 24.5312 75.8515C17.8309 69.1149 14.0675 60.0013 14.0625 50.5V50.5ZM50 61.4374C47.2187 61.4374 44.4999 60.6127 42.1873 59.0675C39.8747 57.5223 38.0723 55.326 37.0079 52.7564C35.9436 50.1868 35.6651 47.3593 36.2077 44.6315C36.7503 41.9036 38.0896 39.3979 40.0563 37.4313C42.023 35.4646 44.5287 34.1253 47.2565 33.5827C49.9844 33.0401 52.8119 33.3185 55.3815 34.3829C57.9511 35.4473 60.1473 37.2497 61.6925 39.5622C63.2377 41.8748 64.0625 44.5937 64.0625 47.375C64.0625 51.1046 62.5809 54.6814 59.9437 57.3186C57.3065 59.9559 53.7296 61.4374 50 61.4374V61.4374ZM26.9141 77.9999C29.2341 73.9232 32.5923 70.5335 36.6473 68.1755C40.7022 65.8175 45.3093 64.5754 50 64.5754C54.6907 64.5754 59.2977 65.8175 63.3527 68.1755C67.4077 70.5335 70.7659 73.9232 73.0859 77.9999C66.6258 83.4452 58.4489 86.4317 50 86.4317C41.5511 86.4317 33.3742 83.4452 26.9141 77.9999V77.9999Z" fill="black"/>
<rect x="64" y="59.5" width="52" height="44" rx="5" fill="white"/>
<path d="M106.667 64.8334H73.3333C71.0354 64.8334 69.1667 66.7021 69.1667 69V94C69.1667 96.298 71.0354 98.1667 73.3333 98.1667H106.667C108.965 98.1667 110.833 96.298 110.833 94V69C110.833 66.7021 108.965 64.8334 106.667 64.8334ZM83.1562 73.1667C85.5542 73.1667 87.3229 74.9355 87.3229 77.3334C87.3229 79.7313 85.5542 81.5 83.1562 81.5C80.7583 81.5 78.9896 79.7313 78.9896 77.3334C78.9896 74.9355 80.7562 73.1667 83.1562 73.1667ZM90.8958 89.8334H75.4167V88.8646C75.4167 86.0042 78.9083 83.0625 83.1562 83.0625C87.4042 83.0625 90.8958 86.0042 90.8958 88.8646V89.8334ZM104.583 87.75H96.25V83.5834H104.583V87.75ZM104.583 79.4167H94.1667V75.25H104.583V79.4167Z" fill="black"/>
<path d="M347.375 17.6875H291.125C289.882 17.6875 288.69 18.1814 287.81 19.0604C286.931 19.9395 286.438 21.1318 286.438 22.375V30.1875H278.625C277.382 30.1875 276.19 30.6814 275.31 31.5604C274.431 32.4395 273.938 33.6318 273.938 34.875V78.625C273.938 79.8682 274.431 81.0605 275.31 81.9396C276.19 82.8186 277.382 83.3125 278.625 83.3125H334.875C336.118 83.3125 337.31 82.8186 338.19 81.9396C339.069 81.0605 339.562 79.8682 339.562 78.625V70.8125H347.375C348.618 70.8125 349.81 70.3186 350.69 69.4396C351.569 68.5605 352.062 67.3682 352.062 66.125V22.375C352.062 21.1318 351.569 19.9395 350.69 19.0604C349.81 18.1814 348.618 17.6875 347.375 17.6875V17.6875ZM278.625 33.3125H334.875C335.289 33.3125 335.687 33.4771 335.98 33.7701C336.273 34.0632 336.438 34.4606 336.438 34.875V42.6875H277.062V34.875C277.062 34.4606 277.227 34.0632 277.52 33.7701C277.813 33.4771 278.211 33.3125 278.625 33.3125V33.3125ZM336.438 78.625C336.438 79.0394 336.273 79.4368 335.98 79.7299C335.687 80.0229 335.289 80.1875 334.875 80.1875H278.625C278.211 80.1875 277.813 80.0229 277.52 79.7299C277.227 79.4368 277.062 79.0394 277.062 78.625V45.8125H336.438V78.625ZM348.938 66.125C348.938 66.5394 348.773 66.9368 348.48 67.2299C348.187 67.5229 347.789 67.6875 347.375 67.6875H339.562V34.875C339.562 33.6318 339.069 32.4395 338.19 31.5604C337.31 30.6814 336.118 30.1875 334.875 30.1875H289.562V22.375C289.562 21.9606 289.727 21.5632 290.02 21.2701C290.313 20.9771 290.711 20.8125 291.125 20.8125H347.375C347.789 20.8125 348.187 20.9771 348.48 21.2701C348.773 21.5632 348.938 21.9606 348.938 22.375V66.125Z" fill="black"/>
<path d="M221 166H225.5V163H221V166ZM234.5 166H243.5V163H234.5V166ZM252.5 166H261.5V163H252.5V166ZM270.5 166H279.5V163H270.5V166ZM288.5 166H293V163H288.5V166ZM293 166C294.434 166 295.837 165.859 297.194 165.591L296.612 162.648C295.445 162.879 294.237 163 293 163V166ZM304.947 162.378C307.291 160.809 309.309 158.791 310.878 156.447L308.385 154.778C307.034 156.796 305.296 158.534 303.278 159.885L304.947 162.378ZM314.091 148.694C314.359 147.337 314.5 145.934 314.5 144.5H311.5C311.5 145.737 311.379 146.945 311.148 148.112L314.091 148.694ZM314.5 144.5V139H311.5V144.5H314.5ZM314.5 128V117H311.5V128H314.5ZM314.5 106V100.5H311.5V106H314.5Z" fill="#D9D9D9"/>
<path d="M51.0607 99.4393C50.4749 98.8536 49.5251 98.8536 48.9393 99.4393L39.3934 108.985C38.8076 109.571 38.8076 110.521 39.3934 111.107C39.9792 111.692 40.9289 111.692 41.5147 111.107L50 102.621L58.4853 111.107C59.0711 111.692 60.0208 111.692 60.6066 111.107C61.1924 110.521 61.1924 109.571 60.6066 108.985L51.0607 99.4393ZM141 163H70V166H141V163ZM51.5 144.5V100.5H48.5V144.5H51.5ZM70 163C59.7827 163 51.5 154.717 51.5 144.5H48.5C48.5 156.374 58.1259 166 70 166V163Z" fill="#3E3E3E"/>
<path d="M262.061 51.5607C262.646 50.9749 262.646 50.0251 262.061 49.4393L252.515 39.8934C251.929 39.3076 250.979 39.3076 250.393 39.8934C249.808 40.4792 249.808 41.4289 250.393 42.0147L258.879 50.5L250.393 58.9853C249.808 59.5711 249.808 60.5208 250.393 61.1066C250.979 61.6924 251.929 61.6924 252.515 61.1066L262.061 51.5607ZM100 52H261V49H100V52Z" fill="#3E3E3E"/>
<path d="M129.5 42.5C129.5 35.8726 134.873 30.5 141.5 30.5H219.5C226.127 30.5 231.5 35.8726 231.5 42.5V57.5C231.5 64.1274 226.127 69.5 219.5 69.5H141.5C134.873 69.5 129.5 64.1274 129.5 57.5V42.5Z" fill="white"/>
<path d="M147.437 43.9306C147.348 43.9295 147.26 43.9004 147.188 43.8473C147.115 43.7942 147.061 43.7199 147.032 43.6345C147.004 43.5492 147.002 43.4571 147.029 43.371C147.055 43.285 147.107 43.2093 147.179 43.1544C148.731 42.0564 150.6 41.4972 152.5 41.5625C153.996 41.5625 156.145 41.8156 157.844 43.0363C157.937 43.1029 157.999 43.2036 158.018 43.3163C158.037 43.4291 158.011 43.5448 157.945 43.6381C157.876 43.7305 157.774 43.7923 157.661 43.8102C157.547 43.8281 157.431 43.8006 157.337 43.7338C155.895 42.817 154.208 42.36 152.5 42.4231C150.795 42.3652 149.117 42.8627 147.719 43.8406C147.639 43.904 147.539 43.936 147.437 43.9306V43.9306Z" fill="black"/>
<path d="M159.379 47.8962C159.31 47.8956 159.241 47.8784 159.18 47.8461C159.118 47.8138 159.065 47.7674 159.025 47.7106C158.052 46.3381 156.314 44.5099 152.5 44.5099C151.232 44.478 149.975 44.7529 148.836 45.3111C147.697 45.8693 146.71 46.6944 145.958 47.7162C145.891 47.8082 145.79 47.8699 145.677 47.8878C145.564 47.9057 145.449 47.8784 145.356 47.8118C145.308 47.778 145.267 47.7344 145.236 47.6839C145.205 47.6333 145.185 47.5769 145.177 47.5182C145.169 47.4595 145.173 47.3998 145.19 47.3428C145.206 47.2859 145.234 47.233 145.272 47.1874C146.105 46.0618 147.197 45.1528 148.455 44.5371C149.712 43.9214 151.1 43.6169 152.5 43.6493C155.656 43.6493 158.018 44.8193 159.722 47.2156C159.788 47.3096 159.813 47.4258 159.793 47.5386C159.773 47.6514 159.709 47.7517 159.616 47.8174C159.546 47.8657 159.464 47.893 159.379 47.8962V47.8962Z" fill="black"/>
<path d="M150.407 58.4375C150.32 58.4371 150.235 58.4106 150.163 58.3615C150.091 58.3124 150.035 58.2429 150.002 58.1619C149.98 58.1089 149.969 58.0519 149.969 57.9943C149.969 57.9367 149.982 57.8799 150.005 57.8272C150.028 57.7745 150.062 57.7271 150.104 57.6879C150.146 57.6488 150.196 57.6186 150.25 57.5994C152.708 56.6544 154.187 54.7194 154.187 52.4188C154.204 52.1929 154.172 51.966 154.093 51.7536C154.014 51.5413 153.891 51.3484 153.731 51.1883C153.57 51.0281 153.377 50.9043 153.165 50.8255C152.953 50.7466 152.726 50.7145 152.5 50.7313C151.454 50.7313 150.947 51.2938 150.812 52.6157C150.75 53.2339 150.45 53.8038 149.976 54.2055C149.502 54.6073 148.89 54.8096 148.27 54.77C147.936 54.7749 147.606 54.7102 147.298 54.5801C146.991 54.4501 146.715 54.2575 146.486 54.0146C146.257 53.7717 146.082 53.4838 145.971 53.1694C145.859 52.8549 145.815 52.5208 145.84 52.1882C145.871 50.449 146.589 48.7928 147.837 47.5809C149.084 46.369 150.761 45.6998 152.5 45.7194C154.283 45.7194 155.994 46.4251 157.259 47.6825C158.524 48.9399 159.24 50.6467 159.25 52.43C159.21 53.6858 158.945 54.9242 158.468 56.0863C158.422 56.1899 158.338 56.2718 158.233 56.3148C158.128 56.3578 158.011 56.3586 157.906 56.3169C157.853 56.2954 157.806 56.2637 157.766 56.2237C157.726 56.1837 157.694 56.1361 157.673 56.0838C157.651 56.0315 157.641 55.9754 157.641 55.9189C157.641 55.8624 157.653 55.8064 157.675 55.7544C158.107 54.697 158.349 53.5716 158.389 52.43C158.382 50.874 157.758 49.3844 156.654 48.2878C155.55 47.1912 154.056 46.577 152.5 46.58C151.747 46.5651 150.999 46.6989 150.297 46.9737C149.596 47.2484 148.956 47.6588 148.414 48.1813C147.871 48.7038 147.437 49.3282 147.137 50.0186C146.836 50.7091 146.674 51.4521 146.661 52.205C146.638 52.4239 146.662 52.6451 146.73 52.8542C146.799 53.0633 146.911 53.2555 147.059 53.4181C147.208 53.5807 147.389 53.7101 147.591 53.7977C147.792 53.8852 148.011 53.9291 148.231 53.9263C148.433 53.9464 148.638 53.9262 148.832 53.8669C149.027 53.8075 149.208 53.7102 149.365 53.5805C149.522 53.4508 149.652 53.2913 149.747 53.1112C149.842 52.9311 149.9 52.734 149.918 52.5313C150.121 50.7819 150.981 49.8932 152.483 49.8932C152.823 49.876 153.164 49.9307 153.481 50.0538C153.799 50.177 154.087 50.3657 154.327 50.6077C154.567 50.8498 154.753 51.1397 154.874 51.4585C154.994 51.7773 155.046 52.118 155.026 52.4582C155.026 55.1244 153.338 57.3632 150.526 58.4375C150.486 58.442 150.447 58.442 150.407 58.4375V58.4375Z" fill="black"/>
<path d="M154.621 58.0325C154.513 58.0307 154.409 57.9909 154.328 57.92C154.288 57.8802 154.256 57.8329 154.234 57.7808C154.213 57.7287 154.201 57.6727 154.201 57.6162C154.201 57.5597 154.213 57.5038 154.234 57.4517C154.256 57.3995 154.288 57.3522 154.328 57.3125C155.594 56.0007 156.307 54.2527 156.319 52.43C156.319 51.5525 156.049 48.6894 152.551 48.6894C152.041 48.6714 151.533 48.7552 151.055 48.9358C150.578 49.1164 150.142 49.3902 149.772 49.7412C149.441 50.0689 149.179 50.4599 149.002 50.8909C148.825 51.3219 148.737 51.7841 148.742 52.25C148.741 52.3639 148.695 52.4726 148.614 52.5526C148.533 52.6326 148.423 52.6775 148.309 52.6775C148.253 52.6782 148.197 52.6677 148.144 52.6466C148.092 52.6254 148.044 52.594 148.003 52.5543C147.963 52.5145 147.931 52.4671 147.909 52.4149C147.887 52.3627 147.876 52.3066 147.876 52.25C147.867 51.6737 147.973 51.1015 148.188 50.5665C148.402 50.0315 148.721 49.5445 149.125 49.1337C149.573 48.7036 150.102 48.3668 150.682 48.1427C151.261 47.9187 151.879 47.812 152.5 47.8287C155.92 47.8287 157.135 50.3037 157.135 52.43C157.128 54.4589 156.342 56.4077 154.941 57.875C154.903 57.9231 154.854 57.9621 154.798 57.9893C154.743 58.0166 154.682 58.0313 154.621 58.0325V58.0325Z" fill="black"/>
<path d="M148.371 56.6037C148.078 56.6031 147.785 56.5862 147.494 56.5531C147.438 56.5468 147.383 56.5296 147.334 56.5023C147.284 56.475 147.241 56.4382 147.205 56.3941C147.17 56.35 147.144 56.2993 147.128 56.245C147.113 56.1908 147.108 56.1339 147.114 56.0778C147.12 56.0217 147.138 55.9673 147.165 55.9178C147.192 55.8684 147.229 55.8248 147.273 55.7895C147.317 55.7543 147.368 55.728 147.422 55.7124C147.476 55.6967 147.533 55.6918 147.589 55.6981C148.99 55.8556 150.092 55.6081 150.874 54.9556C151.235 54.6333 151.526 54.2414 151.731 53.8035C151.936 53.3656 152.05 52.8907 152.067 52.4075C152.07 52.3505 152.084 52.2947 152.109 52.2435C152.134 52.1922 152.169 52.1465 152.212 52.1092C152.255 52.0718 152.305 52.0436 152.36 52.0263C152.414 52.0089 152.471 52.0027 152.528 52.0081C152.642 52.0168 152.747 52.0691 152.823 52.1541C152.898 52.2391 152.938 52.3501 152.933 52.4637C152.909 53.0654 152.764 53.6559 152.504 54.1994C152.245 54.7428 151.878 55.2279 151.426 55.625C150.557 56.3061 149.474 56.6534 148.371 56.6037V56.6037Z" fill="black"/>
<path d="M173.211 46.9205C173.15 46.3826 172.9 45.9659 172.461 45.6705C172.022 45.3712 171.469 45.2216 170.802 45.2216C170.325 45.2216 169.912 45.2973 169.563 45.4489C169.215 45.5966 168.944 45.8011 168.751 46.0625C168.561 46.3201 168.467 46.6136 168.467 46.9432C168.467 47.2197 168.531 47.4583 168.66 47.6591C168.792 47.8598 168.965 48.0284 169.177 48.1648C169.393 48.2973 169.624 48.4091 169.87 48.5C170.116 48.5871 170.353 48.6591 170.58 48.7159L171.717 49.0114C172.088 49.1023 172.469 49.2254 172.859 49.3807C173.249 49.536 173.611 49.7405 173.944 49.9943C174.277 50.2481 174.546 50.5625 174.751 50.9375C174.959 51.3125 175.063 51.7614 175.063 52.2841C175.063 52.9432 174.893 53.5284 174.552 54.0398C174.215 54.5511 173.724 54.9545 173.08 55.25C172.44 55.5455 171.665 55.6932 170.756 55.6932C169.885 55.6932 169.131 55.5549 168.495 55.2784C167.859 55.0019 167.361 54.6098 167.001 54.1023C166.641 53.5909 166.442 52.9848 166.404 52.2841H168.165C168.2 52.7045 168.336 53.0549 168.575 53.3352C168.817 53.6117 169.126 53.8182 169.501 53.9545C169.879 54.0871 170.294 54.1534 170.745 54.1534C171.241 54.1534 171.683 54.0758 172.069 53.9205C172.459 53.7614 172.766 53.5417 172.989 53.2614C173.213 52.9773 173.325 52.6458 173.325 52.267C173.325 51.9223 173.226 51.6402 173.029 51.4205C172.836 51.2008 172.573 51.0189 172.239 50.875C171.91 50.7311 171.537 50.6042 171.12 50.4943L169.745 50.1193C168.813 49.8655 168.075 49.4924 167.529 49C166.987 48.5076 166.717 47.8561 166.717 47.0455C166.717 46.375 166.898 45.7898 167.262 45.2898C167.626 44.7898 168.118 44.4015 168.739 44.125C169.361 43.8447 170.061 43.7045 170.842 43.7045C171.629 43.7045 172.325 43.8428 172.927 44.1193C173.533 44.3958 174.01 44.7765 174.359 45.2614C174.707 45.7424 174.889 46.2955 174.904 46.9205H173.211ZM177.025 55.5V46.7727H178.724V55.5H177.025ZM177.883 45.4261C177.587 45.4261 177.334 45.3277 177.121 45.1307C176.913 44.9299 176.809 44.6913 176.809 44.4148C176.809 44.1345 176.913 43.8958 177.121 43.6989C177.334 43.4981 177.587 43.3977 177.883 43.3977C178.178 43.3977 178.43 43.4981 178.638 43.6989C178.851 43.8958 178.957 44.1345 178.957 44.4148C178.957 44.6913 178.851 44.9299 178.638 45.1307C178.43 45.3277 178.178 45.4261 177.883 45.4261ZM184.668 58.9545C183.975 58.9545 183.379 58.8636 182.879 58.6818C182.382 58.5 181.977 58.2595 181.663 57.9602C181.348 57.661 181.113 57.3333 180.958 56.9773L182.418 56.375C182.521 56.5417 182.657 56.7178 182.827 56.9034C183.002 57.0928 183.237 57.2538 183.532 57.3864C183.831 57.5189 184.216 57.5852 184.685 57.5852C185.329 57.5852 185.862 57.428 186.282 57.1136C186.702 56.803 186.913 56.3068 186.913 55.625V53.9091H186.805C186.702 54.0947 186.555 54.3011 186.362 54.5284C186.172 54.7557 185.911 54.9527 185.577 55.1193C185.244 55.286 184.81 55.3693 184.276 55.3693C183.587 55.3693 182.966 55.2083 182.413 54.8864C181.863 54.5606 181.428 54.0814 181.106 53.4489C180.788 52.8125 180.629 52.0303 180.629 51.1023C180.629 50.1742 180.786 49.3788 181.1 48.7159C181.418 48.053 181.854 47.5455 182.407 47.1932C182.96 46.8371 183.587 46.6591 184.288 46.6591C184.829 46.6591 185.267 46.75 185.6 46.9318C185.933 47.1098 186.193 47.3182 186.379 47.5568C186.568 47.7955 186.714 48.0057 186.816 48.1875H186.941V46.7727H188.606V55.6932C188.606 56.4432 188.432 57.0587 188.083 57.5398C187.735 58.0208 187.263 58.3769 186.668 58.608C186.077 58.839 185.411 58.9545 184.668 58.9545ZM184.651 53.9602C185.14 53.9602 185.553 53.8466 185.89 53.6193C186.231 53.3883 186.488 53.0587 186.663 52.6307C186.841 52.1989 186.93 51.6818 186.93 51.0795C186.93 50.4924 186.843 49.9754 186.668 49.5284C186.494 49.0814 186.238 48.733 185.901 48.483C185.564 48.2292 185.147 48.1023 184.651 48.1023C184.14 48.1023 183.714 48.2348 183.373 48.5C183.032 48.7614 182.774 49.1174 182.6 49.5682C182.43 50.0189 182.344 50.5227 182.344 51.0795C182.344 51.6515 182.432 52.1534 182.606 52.5852C182.78 53.017 183.038 53.3542 183.379 53.5966C183.723 53.839 184.147 53.9602 184.651 53.9602ZM192.583 50.3182V55.5H190.884V46.7727H192.515V48.1932H192.623C192.824 47.7311 193.138 47.3598 193.566 47.0795C193.998 46.7992 194.541 46.6591 195.197 46.6591C195.791 46.6591 196.312 46.7841 196.759 47.0341C197.206 47.2803 197.553 47.6477 197.799 48.1364C198.045 48.625 198.168 49.2292 198.168 49.9489V55.5H196.469V50.1534C196.469 49.5208 196.305 49.0265 195.975 48.6705C195.646 48.3106 195.193 48.1307 194.617 48.1307C194.223 48.1307 193.873 48.2159 193.566 48.3864C193.263 48.5568 193.022 48.8068 192.844 49.1364C192.67 49.4621 192.583 49.8561 192.583 50.3182ZM206.573 43.8636V55.5H204.817V43.8636H206.573ZM210.692 50.3182V55.5H208.994V46.7727H210.624V48.1932H210.732C210.933 47.7311 211.247 47.3598 211.675 47.0795C212.107 46.7992 212.651 46.6591 213.306 46.6591C213.901 46.6591 214.422 46.7841 214.869 47.0341C215.316 47.2803 215.662 47.6477 215.908 48.1364C216.155 48.625 216.278 49.2292 216.278 49.9489V55.5H214.579V50.1534C214.579 49.5208 214.414 49.0265 214.085 48.6705C213.755 48.3106 213.302 48.1307 212.727 48.1307C212.333 48.1307 211.982 48.2159 211.675 48.3864C211.372 48.5568 211.132 48.8068 210.954 49.1364C210.78 49.4621 210.692 49.8561 210.692 50.3182Z" fill="black"/>
<path d="M141.5 31.5H219.5V29.5H141.5V31.5ZM230.5 42.5V57.5H232.5V42.5H230.5ZM219.5 68.5H141.5V70.5H219.5V68.5ZM130.5 57.5V42.5H128.5V57.5H130.5ZM141.5 68.5C135.425 68.5 130.5 63.5751 130.5 57.5H128.5C128.5 64.6797 134.32 70.5 141.5 70.5V68.5ZM230.5 57.5C230.5 63.5751 225.575 68.5 219.5 68.5V70.5C226.68 70.5 232.5 64.6797 232.5 57.5H230.5ZM219.5 31.5C225.575 31.5 230.5 36.4249 230.5 42.5H232.5C232.5 35.3203 226.68 29.5 219.5 29.5V31.5ZM141.5 29.5C134.32 29.5 128.5 35.3203 128.5 42.5H130.5C130.5 36.4249 135.425 31.5 141.5 31.5V29.5Z" fill="black"/>
<path d="M140.375 153.562H151.312V181.687H143.5C143.086 181.687 142.688 181.852 142.395 182.145C142.102 182.438 141.938 182.836 141.938 183.25C141.938 183.664 142.102 184.062 142.395 184.355C142.688 184.648 143.086 184.812 143.5 184.812H218.5C218.914 184.812 219.312 184.648 219.605 184.355C219.898 184.062 220.062 183.664 220.062 183.25C220.062 182.836 219.898 182.438 219.605 182.145C219.312 181.852 218.914 181.687 218.5 181.687H210.688V153.562H221.625C221.963 153.565 222.292 153.455 222.561 153.25C222.83 153.045 223.023 152.756 223.109 152.43C223.204 152.104 223.191 151.757 223.071 151.44C222.951 151.123 222.732 150.853 222.445 150.672L181.82 125.672C181.574 125.52 181.29 125.439 181 125.439C180.71 125.439 180.426 125.52 180.18 125.672L139.555 150.672C139.268 150.853 139.049 151.123 138.929 151.44C138.809 151.757 138.796 152.104 138.891 152.43C138.977 152.756 139.17 153.045 139.439 153.25C139.708 153.455 140.037 153.565 140.375 153.562V153.562ZM154.438 153.562H170.062V181.687H154.438V153.562ZM188.812 153.562V181.687H173.188V153.562H188.812ZM207.562 181.687H191.938V153.562H207.562V181.687ZM181 128.836L216.117 150.437H145.883L181 128.836ZM226.312 195.75C226.312 196.164 226.148 196.562 225.855 196.855C225.562 197.148 225.164 197.312 224.75 197.312H137.25C136.836 197.312 136.438 197.148 136.145 196.855C135.852 196.562 135.688 196.164 135.688 195.75C135.688 195.336 135.852 194.938 136.145 194.645C136.438 194.352 136.836 194.187 137.25 194.187H224.75C225.164 194.187 225.562 194.352 225.855 194.645C226.148 194.938 226.312 195.336 226.312 195.75Z" fill="black"/>
<circle cx="221" cy="192.5" r="27" fill="white"/>
<path d="M221 213.333C209.494 213.333 200.167 204.006 200.167 192.5C200.167 180.994 209.494 171.667 221 171.667C232.506 171.667 241.833 180.994 241.833 192.5C241.833 204.006 232.506 213.333 221 213.333ZM234.24 200.733V200.515C234.24 198.594 234.24 197.717 232.881 196.94C232.445 196.692 231.996 196.466 231.537 196.262C230.773 195.915 230.267 195.687 229.583 194.687C229.502 194.569 229.421 194.449 229.342 194.329C228.623 193.235 228.104 192.448 226.129 192.76C222.244 193.377 221.956 194.06 221.785 195.215L221.758 195.404C221.506 197.092 221.46 197.658 222.165 198.398C224.8 201.162 226.379 203.156 226.858 204.323C227.092 204.892 227.692 206.615 227.279 208.319C229.808 207.311 232.059 205.713 233.844 203.658C234.073 202.879 234.24 201.908 234.24 200.733V200.733ZM221 175.485C216.173 175.485 211.812 177.498 208.717 180.727C209.085 180.983 209.406 181.344 209.627 181.84C210.052 182.792 210.052 183.773 210.052 184.642C210.052 185.325 210.052 185.975 210.271 186.444C210.571 187.085 211.867 187.36 213.01 187.598C213.421 187.685 213.842 187.773 214.225 187.879C215.279 188.171 216.096 189.119 216.748 189.879C217.019 190.194 217.421 190.658 217.623 190.775C217.727 190.7 218.062 190.335 218.227 189.737C218.356 189.279 218.319 188.875 218.133 188.654C216.967 187.279 217.031 184.633 217.392 183.656C217.958 182.117 219.729 182.231 221.025 182.315C221.508 182.346 221.962 182.377 222.304 182.333C223.6 182.171 224 180.198 224.281 179.812C224.89 178.979 226.752 177.723 227.906 176.948C225.732 175.981 223.379 175.483 221 175.485V175.485Z" fill="black"/>
</svg>
