<svg width="363" height="219" viewBox="0 0 363 219" fill="none" xmlns="http://www.w3.org/2000/svg">
<path d="M89.0625 50C89.0667 43.4971 87.4474 37.0961 84.3514 31.3776C81.2555 25.659 76.7809 20.8038 71.3335 17.2524C65.8861 13.7009 59.6382 11.5656 53.1567 11.0401C46.6751 10.5146 40.1649 11.6156 34.2165 14.2431C28.2682 16.8706 23.0699 20.9416 19.0931 26.0867C15.1164 31.2319 12.4871 37.2884 11.4437 43.707C10.4002 50.1255 10.9757 56.7031 13.1179 62.8429C15.2601 68.9828 18.9012 74.4907 23.7109 78.8671C23.8097 78.9903 23.9286 79.0959 24.0625 79.1796C31.2097 85.5465 40.4477 89.0644 50.0195 89.0644C59.5913 89.0644 68.8293 85.5465 75.9766 79.1796L76.2891 78.8671C80.3171 75.2151 83.5349 70.7593 85.735 65.7872C87.9351 60.8151 89.0687 55.4371 89.0625 50ZM14.0625 50C14.062 44.0933 15.5175 38.2776 18.3 33.0674C21.0826 27.8572 25.1064 23.4132 30.0156 20.1286C34.9248 16.844 40.5679 14.82 46.4456 14.2358C52.3233 13.6516 58.2543 14.5252 63.714 16.7792C69.1737 19.0332 73.9936 22.5982 77.7473 27.1587C81.501 31.7192 84.0727 37.1347 85.235 42.9259C86.3972 48.7171 86.114 54.7054 84.4106 60.3611C82.7072 66.0168 79.636 71.1655 75.4688 75.3515C71.5897 68.8531 65.3696 64.0866 58.0859 62.0312C61.4685 60.2278 64.1512 57.3454 65.7074 53.8422C67.2636 50.339 67.6041 46.4161 66.6746 42.6972C65.7452 38.9783 63.5992 35.6768 60.5779 33.3177C57.5566 30.9585 53.8333 29.677 50 29.677C46.1667 29.677 42.4434 30.9585 39.4221 33.3177C36.4008 35.6768 34.2548 38.9783 33.3254 42.6972C32.3959 46.4161 32.7364 50.339 34.2926 53.8422C35.8488 57.3454 38.5315 60.2278 41.9141 62.0312C34.6304 64.0866 28.4103 68.8531 24.5312 75.3515C17.8309 68.6149 14.0675 59.5013 14.0625 50ZM50 60.9375C47.2187 60.9375 44.4999 60.1127 42.1873 58.5675C39.8747 57.0223 38.0723 54.826 37.0079 52.2564C35.9436 49.6868 35.6651 46.8593 36.2077 44.1315C36.7503 41.4036 38.0896 38.8979 40.0563 36.9313C42.023 34.9646 44.5287 33.6253 47.2565 33.0827C49.9844 32.5401 52.8119 32.8185 55.3815 33.8829C57.9511 34.9473 60.1473 36.7497 61.6925 39.0622C63.2378 41.3748 64.0625 44.0937 64.0625 46.875C64.0625 50.6046 62.5809 54.1814 59.9437 56.8186C57.3065 59.4559 53.7296 60.9375 50 60.9375ZM26.9141 77.4999C29.2341 73.4232 32.5923 70.0335 36.6473 67.6755C40.7022 65.3175 45.3093 64.0754 50 64.0754C54.6907 64.0754 59.2977 65.3175 63.3527 67.6755C67.4077 70.0335 70.7659 73.4232 73.0859 77.4999C66.6258 82.9452 58.4489 85.9317 50 85.9317C41.5511 85.9317 33.3742 82.9452 26.9141 77.4999Z" fill="black"/>
<rect x="64" y="59" width="52" height="44" rx="5" fill="white"/>
<path d="M106.667 64.3334H73.3333C71.0354 64.3334 69.1666 66.2021 69.1666 68.5V93.5C69.1666 95.798 71.0354 97.6667 73.3333 97.6667H106.667C108.965 97.6667 110.833 95.798 110.833 93.5V68.5C110.833 66.2021 108.965 64.3334 106.667 64.3334ZM83.1562 72.6667C85.5541 72.6667 87.3229 74.4355 87.3229 76.8334C87.3229 79.2313 85.5541 81 83.1562 81C80.7583 81 78.9895 79.2313 78.9895 76.8334C78.9895 74.4355 80.7562 72.6667 83.1562 72.6667ZM90.8958 89.3334H75.4166V88.3646C75.4166 85.5042 78.9083 82.5625 83.1562 82.5625C87.4041 82.5625 90.8958 85.5042 90.8958 88.3646V89.3334ZM104.583 87.25H96.25V83.0834H104.583V87.25ZM104.583 78.9167H94.1666V74.75H104.583V78.9167Z" fill="black"/>
<path d="M347.375 17.1875H291.125C289.882 17.1875 288.69 17.6814 287.81 18.5604C286.931 19.4395 286.438 20.6318 286.438 21.875V29.6875H278.625C277.382 29.6875 276.19 30.1814 275.31 31.0604C274.431 31.9395 273.938 33.1318 273.938 34.375V78.125C273.938 79.3682 274.431 80.5605 275.31 81.4396C276.19 82.3186 277.382 82.8125 278.625 82.8125H334.875C336.118 82.8125 337.31 82.3186 338.19 81.4396C339.069 80.5605 339.562 79.3682 339.562 78.125V70.3125H347.375C348.618 70.3125 349.81 69.8186 350.69 68.9396C351.569 68.0605 352.062 66.8682 352.062 65.625V21.875C352.062 20.6318 351.569 19.4395 350.69 18.5604C349.81 17.6814 348.618 17.1875 347.375 17.1875ZM278.625 32.8125H334.875C335.289 32.8125 335.687 32.9771 335.98 33.2701C336.273 33.5632 336.438 33.9606 336.438 34.375V42.1875H277.062V34.375C277.062 33.9606 277.227 33.5632 277.52 33.2701C277.813 32.9771 278.211 32.8125 278.625 32.8125ZM336.438 78.125C336.438 78.5394 336.273 78.9368 335.98 79.2299C335.687 79.5229 335.289 79.6875 334.875 79.6875H278.625C278.211 79.6875 277.813 79.5229 277.52 79.2299C277.227 78.9368 277.062 78.5394 277.062 78.125V45.3125H336.438V78.125ZM348.938 65.625C348.938 66.0394 348.773 66.4368 348.48 66.7299C348.187 67.0229 347.789 67.1875 347.375 67.1875H339.562V34.375C339.562 33.1318 339.069 31.9395 338.19 31.0604C337.31 30.1814 336.118 29.6875 334.875 29.6875H289.562V21.875C289.562 21.4606 289.727 21.0632 290.02 20.7701C290.313 20.4771 290.711 20.3125 291.125 20.3125H347.375C347.789 20.3125 348.187 20.4771 348.48 20.7701C348.773 21.0632 348.938 21.4606 348.938 21.875V65.625Z" fill="black"/>
<path d="M221 165.5H225.5V162.5H221V165.5ZM234.5 165.5H243.5V162.5H234.5V165.5ZM252.5 165.5H261.5V162.5H252.5V165.5ZM270.5 165.5H279.5V162.5H270.5V165.5ZM288.5 165.5H293V162.5H288.5V165.5ZM293 165.5C294.434 165.5 295.837 165.359 297.194 165.091L296.612 162.148C295.445 162.379 294.237 162.5 293 162.5V165.5ZM304.947 161.878C307.291 160.309 309.309 158.291 310.878 155.947L308.385 154.278C307.034 156.296 305.296 158.034 303.278 159.385L304.947 161.878ZM314.091 148.194C314.359 146.837 314.5 145.434 314.5 144H311.5C311.5 145.237 311.379 146.445 311.148 147.612L314.091 148.194ZM314.5 144V138.5H311.5V144H314.5ZM314.5 127.5V116.5H311.5V127.5H314.5ZM314.5 105.5V100H311.5V105.5H314.5Z" fill="#D9D9D9"/>
<path d="M51.0607 98.9393C50.4749 98.3536 49.5251 98.3536 48.9393 98.9393L39.3934 108.485C38.8076 109.071 38.8076 110.021 39.3934 110.607C39.9792 111.192 40.9289 111.192 41.5147 110.607L50 102.121L58.4853 110.607C59.0711 111.192 60.0208 111.192 60.6066 110.607C61.1924 110.021 61.1924 109.071 60.6066 108.485L51.0607 98.9393ZM141 162.5H70V165.5H141V162.5ZM51.5 144V100H48.5V144H51.5ZM70 162.5C59.7827 162.5 51.5 154.217 51.5 144H48.5C48.5 155.874 58.1259 165.5 70 165.5V162.5Z" fill="#3E3E3E"/>
<path d="M262.061 51.0607C262.646 50.4749 262.646 49.5251 262.061 48.9393L252.515 39.3934C251.929 38.8076 250.979 38.8076 250.393 39.3934C249.808 39.9792 249.808 40.9289 250.393 41.5147L258.879 50L250.393 58.4853C249.808 59.0711 249.808 60.0208 250.393 60.6066C250.979 61.1924 251.929 61.1924 252.515 60.6066L262.061 51.0607ZM100 51.5H261V48.5H100V51.5Z" fill="#3E3E3E"/>
<path d="M140.5 42C140.5 35.3726 145.873 30 152.5 30H208.5C215.127 30 220.5 35.3726 220.5 42V57C220.5 63.6274 215.127 69 208.5 69H152.5C145.873 69 140.5 63.6274 140.5 57V42Z" fill="white"/>
<path d="M162.125 46.4205C162.064 45.8826 161.814 45.4659 161.375 45.1705C160.936 44.8712 160.383 44.7216 159.716 44.7216C159.239 44.7216 158.826 44.7973 158.477 44.9489C158.129 45.0966 157.858 45.3011 157.665 45.5625C157.475 45.8201 157.381 46.1136 157.381 46.4432C157.381 46.7197 157.445 46.9583 157.574 47.1591C157.706 47.3598 157.879 47.5284 158.091 47.6648C158.307 47.7973 158.538 47.9091 158.784 48C159.03 48.0871 159.267 48.1591 159.494 48.2159L160.631 48.5114C161.002 48.6023 161.383 48.7254 161.773 48.8807C162.163 49.036 162.525 49.2405 162.858 49.4943C163.191 49.7481 163.46 50.0625 163.665 50.4375C163.873 50.8125 163.977 51.2614 163.977 51.7841C163.977 52.4432 163.807 53.0284 163.466 53.5398C163.129 54.0511 162.638 54.4545 161.994 54.75C161.354 55.0455 160.58 55.1932 159.67 55.1932C158.799 55.1932 158.045 55.0549 157.409 54.7784C156.773 54.5019 156.275 54.1098 155.915 53.6023C155.555 53.0909 155.356 52.4848 155.318 51.7841H157.08C157.114 52.2045 157.25 52.5549 157.489 52.8352C157.731 53.1117 158.04 53.3182 158.415 53.4545C158.794 53.5871 159.208 53.6534 159.659 53.6534C160.155 53.6534 160.597 53.5758 160.983 53.4205C161.373 53.2614 161.68 53.0417 161.903 52.7614C162.127 52.4773 162.239 52.1458 162.239 51.767C162.239 51.4223 162.14 51.1402 161.943 50.9205C161.75 50.7008 161.487 50.5189 161.153 50.375C160.824 50.2311 160.451 50.1042 160.034 49.9943L158.659 49.6193C157.727 49.3655 156.989 48.9924 156.443 48.5C155.902 48.0076 155.631 47.3561 155.631 46.5455C155.631 45.875 155.813 45.2898 156.176 44.7898C156.54 44.2898 157.032 43.9015 157.653 43.625C158.275 43.3447 158.975 43.2045 159.756 43.2045C160.544 43.2045 161.239 43.3428 161.841 43.6193C162.447 43.8958 162.924 44.2765 163.273 44.7614C163.621 45.2424 163.803 45.7955 163.818 46.4205H162.125ZM165.939 55V46.2727H167.638V55H165.939ZM166.797 44.9261C166.501 44.9261 166.248 44.8277 166.036 44.6307C165.827 44.4299 165.723 44.1913 165.723 43.9148C165.723 43.6345 165.827 43.3958 166.036 43.1989C166.248 42.9981 166.501 42.8977 166.797 42.8977C167.092 42.8977 167.344 42.9981 167.553 43.1989C167.765 43.3958 167.871 43.6345 167.871 43.9148C167.871 44.1913 167.765 44.4299 167.553 44.6307C167.344 44.8277 167.092 44.9261 166.797 44.9261ZM173.582 58.4545C172.889 58.4545 172.293 58.3636 171.793 58.1818C171.296 58 170.891 57.7595 170.577 57.4602C170.262 57.161 170.027 56.8333 169.872 56.4773L171.332 55.875C171.435 56.0417 171.571 56.2178 171.741 56.4034C171.916 56.5928 172.151 56.7538 172.446 56.8864C172.745 57.0189 173.13 57.0852 173.599 57.0852C174.243 57.0852 174.776 56.928 175.196 56.6136C175.616 56.303 175.827 55.8068 175.827 55.125V53.4091H175.719C175.616 53.5947 175.469 53.8011 175.276 54.0284C175.086 54.2557 174.825 54.4527 174.491 54.6193C174.158 54.786 173.724 54.8693 173.19 54.8693C172.501 54.8693 171.88 54.7083 171.327 54.3864C170.777 54.0606 170.342 53.5814 170.02 52.9489C169.702 52.3125 169.543 51.5303 169.543 50.6023C169.543 49.6742 169.7 48.8788 170.014 48.2159C170.332 47.553 170.768 47.0455 171.321 46.6932C171.874 46.3371 172.501 46.1591 173.202 46.1591C173.743 46.1591 174.181 46.25 174.514 46.4318C174.848 46.6098 175.107 46.8182 175.293 47.0568C175.482 47.2955 175.628 47.5057 175.73 47.6875H175.855V46.2727H177.52V55.1932C177.52 55.9432 177.346 56.5587 176.997 57.0398C176.649 57.5208 176.177 57.8769 175.582 58.108C174.991 58.339 174.325 58.4545 173.582 58.4545ZM173.565 53.4602C174.054 53.4602 174.467 53.3466 174.804 53.1193C175.145 52.8883 175.402 52.5587 175.577 52.1307C175.755 51.6989 175.844 51.1818 175.844 50.5795C175.844 49.9924 175.757 49.4754 175.582 49.0284C175.408 48.5814 175.152 48.233 174.815 47.983C174.478 47.7292 174.062 47.6023 173.565 47.6023C173.054 47.6023 172.628 47.7348 172.287 48C171.946 48.2614 171.688 48.6174 171.514 49.0682C171.344 49.5189 171.259 50.0227 171.259 50.5795C171.259 51.1515 171.346 51.6534 171.52 52.0852C171.694 52.517 171.952 52.8542 172.293 53.0966C172.637 53.339 173.062 53.4602 173.565 53.4602ZM181.497 49.8182V55H179.798V46.2727H181.429V47.6932H181.537C181.738 47.2311 182.052 46.8598 182.48 46.5795C182.912 46.2992 183.455 46.1591 184.111 46.1591C184.705 46.1591 185.226 46.2841 185.673 46.5341C186.12 46.7803 186.467 47.1477 186.713 47.6364C186.959 48.125 187.082 48.7292 187.082 49.4489V55H185.384V49.6534C185.384 49.0208 185.219 48.5265 184.889 48.1705C184.56 47.8106 184.107 47.6307 183.531 47.6307C183.137 47.6307 182.787 47.7159 182.48 47.8864C182.177 48.0568 181.937 48.3068 181.759 48.6364C181.584 48.9621 181.497 49.3561 181.497 49.8182ZM195.487 43.3636V55H193.732V43.3636H195.487ZM199.607 49.8182V55H197.908V46.2727H199.538V47.6932H199.646C199.847 47.2311 200.161 46.8598 200.589 46.5795C201.021 46.2992 201.565 46.1591 202.22 46.1591C202.815 46.1591 203.336 46.2841 203.783 46.5341C204.23 46.7803 204.576 47.1477 204.822 47.6364C205.069 48.125 205.192 48.7292 205.192 49.4489V55H203.493V49.6534C203.493 49.0208 203.328 48.5265 202.999 48.1705C202.669 47.8106 202.216 47.6307 201.641 47.6307C201.247 47.6307 200.896 47.7159 200.589 47.8864C200.286 48.0568 200.046 48.3068 199.868 48.6364C199.694 48.9621 199.607 49.3561 199.607 49.8182Z" fill="black"/>
<path d="M152.5 31H208.5V29H152.5V31ZM219.5 42V57H221.5V42H219.5ZM208.5 68H152.5V70H208.5V68ZM141.5 57V42H139.5V57H141.5ZM152.5 68C146.425 68 141.5 63.0751 141.5 57H139.5C139.5 64.1797 145.32 70 152.5 70V68ZM219.5 57C219.5 63.0751 214.575 68 208.5 68V70C215.68 70 221.5 64.1797 221.5 57H219.5ZM208.5 31C214.575 31 219.5 35.9249 219.5 42H221.5C221.5 34.8203 215.68 29 208.5 29V31ZM152.5 29C145.32 29 139.5 34.8203 139.5 42H141.5C141.5 35.9249 146.425 31 152.5 31V29Z" fill="black"/>
<path d="M140.375 153.062H151.312V181.187H143.5C143.086 181.187 142.688 181.352 142.395 181.645C142.102 181.938 141.938 182.336 141.938 182.75C141.938 183.164 142.102 183.562 142.395 183.855C142.688 184.148 143.086 184.312 143.5 184.312H218.5C218.914 184.312 219.312 184.148 219.605 183.855C219.898 183.562 220.062 183.164 220.062 182.75C220.062 182.336 219.898 181.938 219.605 181.645C219.312 181.352 218.914 181.187 218.5 181.187H210.688V153.062H221.625C221.963 153.065 222.292 152.955 222.561 152.75C222.83 152.545 223.023 152.256 223.109 151.93C223.204 151.604 223.191 151.257 223.071 150.94C222.951 150.623 222.732 150.353 222.445 150.172L181.82 125.172C181.574 125.02 181.29 124.939 181 124.939C180.71 124.939 180.426 125.02 180.18 125.172L139.555 150.172C139.268 150.353 139.049 150.623 138.929 150.94C138.809 151.257 138.796 151.604 138.891 151.93C138.977 152.256 139.17 152.545 139.439 152.75C139.708 152.955 140.037 153.065 140.375 153.062ZM154.438 153.062H170.062V181.187H154.438V153.062ZM188.812 153.062V181.187H173.188V153.062H188.812ZM207.562 181.187H191.938V153.062H207.562V181.187ZM181 128.336L216.117 149.937H145.883L181 128.336ZM226.312 195.25C226.312 195.664 226.148 196.062 225.855 196.355C225.562 196.648 225.164 196.812 224.75 196.812H137.25C136.836 196.812 136.438 196.648 136.145 196.355C135.852 196.062 135.688 195.664 135.688 195.25C135.688 194.836 135.852 194.438 136.145 194.145C136.438 193.852 136.836 193.687 137.25 193.687H224.75C225.164 193.687 225.562 193.852 225.855 194.145C226.148 194.438 226.312 194.836 226.312 195.25Z" fill="black"/>
<circle cx="221" cy="192" r="27" fill="white"/>
<path d="M221 212.833C209.494 212.833 200.167 203.506 200.167 192C200.167 180.494 209.494 171.167 221 171.167C232.506 171.167 241.833 180.494 241.833 192C241.833 203.506 232.506 212.833 221 212.833ZM234.24 200.233V200.015C234.24 198.094 234.24 197.217 232.881 196.44C232.445 196.192 231.996 195.966 231.537 195.762C230.773 195.415 230.267 195.187 229.583 194.187C229.502 194.069 229.421 193.949 229.342 193.829C228.623 192.735 228.104 191.948 226.129 192.26C222.244 192.877 221.956 193.56 221.785 194.715L221.758 194.904C221.506 196.592 221.46 197.158 222.165 197.898C224.8 200.662 226.379 202.656 226.858 203.823C227.092 204.392 227.692 206.115 227.279 207.819C229.808 206.811 232.059 205.213 233.844 203.158C234.073 202.379 234.24 201.408 234.24 200.233ZM221 174.985C216.173 174.985 211.812 176.998 208.717 180.227C209.085 180.483 209.406 180.844 209.627 181.34C210.052 182.292 210.052 183.273 210.052 184.142C210.052 184.825 210.052 185.475 210.271 185.944C210.571 186.585 211.867 186.86 213.01 187.098C213.421 187.185 213.842 187.273 214.225 187.379C215.279 187.671 216.096 188.619 216.748 189.379C217.019 189.694 217.421 190.158 217.623 190.275C217.727 190.2 218.062 189.835 218.227 189.237C218.356 188.779 218.319 188.375 218.133 188.154C216.967 186.779 217.031 184.133 217.392 183.156C217.958 181.617 219.729 181.731 221.025 181.815C221.508 181.846 221.962 181.877 222.304 181.833C223.6 181.671 224 179.698 224.281 179.312C224.89 178.479 226.752 177.223 227.906 176.448C225.732 175.481 223.379 174.983 221 174.985Z" fill="black"/>
</svg>
