<svg width="395" height="204" viewBox="0 0 395 204" fill="none" xmlns="http://www.w3.org/2000/svg">
<path d="M50 25C46.9097 25 43.8887 25.9164 41.3192 27.6333C38.7497 29.3502 36.747 31.7905 35.5644 34.6456C34.3818 37.5007 34.0723 40.6423 34.6752 43.6733C35.2781 46.7042 36.7663 49.4883 38.9515 51.6735C41.1367 53.8587 43.9208 55.3469 46.9517 55.9498C49.9827 56.5527 53.1243 56.2432 55.9794 55.0606C58.8345 53.878 61.2748 51.8753 62.9917 49.3058C64.7086 46.7363 65.625 43.7153 65.625 40.625C65.625 36.481 63.9788 32.5067 61.0486 29.5765C58.1183 26.6462 54.144 25 50 25Z" fill="black"/>
<path d="M50 6.25C41.3471 6.25 32.8885 8.81589 25.6938 13.6232C18.4992 18.4305 12.8916 25.2633 9.58029 33.2576C6.26896 41.2519 5.40256 50.0485 7.09066 58.5352C8.77877 67.0219 12.9456 74.8174 19.0641 80.9359C25.1826 87.0545 32.9782 91.2213 41.4648 92.9094C49.9515 94.5975 58.7482 93.7311 66.7424 90.4197C74.7367 87.1084 81.5695 81.5008 86.3768 74.3062C91.1841 67.1115 93.75 58.6529 93.75 50C93.7368 38.4008 89.1232 27.2805 80.9213 19.0787C72.7195 10.8768 61.5992 6.26323 50 6.25ZM74.975 77.8938C74.9127 73.7948 73.2427 69.8843 70.3247 67.005C67.4068 64.1256 63.4744 62.5077 59.375 62.5H40.625C36.5256 62.5077 32.5933 64.1256 29.6753 67.005C26.7573 69.8843 25.0873 73.7948 25.025 77.8938C19.358 72.8336 15.3617 66.1715 13.5651 58.7896C11.7686 51.4077 12.2566 43.6542 14.9645 36.5558C17.6724 29.4574 22.4726 23.349 28.7293 19.0393C34.986 14.7296 42.4042 12.422 50.0016 12.422C57.599 12.422 65.0171 14.7296 71.2739 19.0393C77.5306 23.349 82.3307 29.4574 85.0387 36.5558C87.7466 43.6542 88.2346 51.4077 86.438 58.7896C84.6415 66.1715 80.6451 72.8336 74.9781 77.8938H74.975Z" fill="black"/>
<rect x="64" y="63" width="52" height="44" rx="5" fill="white"/>
<path d="M106.667 68.3334H73.3333C71.0354 68.3334 69.1667 70.2021 69.1667 72.5V97.5C69.1667 99.798 71.0354 101.667 73.3333 101.667H106.667C108.965 101.667 110.833 99.798 110.833 97.5V72.5C110.833 70.2021 108.965 68.3334 106.667 68.3334ZM83.1562 76.6667C85.5542 76.6667 87.3229 78.4355 87.3229 80.8334C87.3229 83.2313 85.5542 85 83.1562 85C80.7583 85 78.9896 83.2313 78.9896 80.8334C78.9896 78.4355 80.7562 76.6667 83.1562 76.6667ZM90.8958 93.3334H75.4167V92.3646C75.4167 89.5042 78.9083 86.5625 83.1562 86.5625C87.4042 86.5625 90.8958 89.5042 90.8958 92.3646V93.3334ZM104.583 91.25H96.25V87.0834H104.583V91.25ZM104.583 82.9167H94.1667V78.75H104.583V82.9167Z" fill="black"/>
<path d="M355.216 65.2781L336.466 54.1844C335.984 53.899 335.434 53.7488 334.875 53.7493C334.315 53.7499 333.765 53.9012 333.284 54.1875L314.534 65.2813C314.067 65.557 313.679 65.9499 313.41 66.4213C313.141 66.8926 313 67.426 313 67.9687V89.5313C313 90.6375 313.584 91.6594 314.534 92.2187L333.284 103.313C333.765 103.601 334.315 103.753 334.875 103.753C335.435 103.753 335.985 103.601 336.466 103.313L355.216 92.2187C355.683 91.943 356.071 91.5501 356.34 91.0787C356.609 90.6074 356.75 90.074 356.75 89.5313V67.9687C356.75 67.4256 356.609 66.8918 356.34 66.42C356.071 65.9481 355.683 65.5546 355.216 65.2781ZM350.5 87.75L334.875 96.9937L319.25 87.75V69.75L334.875 60.5063L350.5 69.75V87.75Z" fill="black"/>
<path d="M281.75 31.875C283.476 31.875 284.875 30.4759 284.875 28.75C284.875 27.0241 283.476 25.625 281.75 25.625C280.024 25.625 278.625 27.0241 278.625 28.75C278.625 30.4759 280.024 31.875 281.75 31.875Z" fill="black"/>
<path d="M291.125 31.875C292.851 31.875 294.25 30.4759 294.25 28.75C294.25 27.0241 292.851 25.625 291.125 25.625C289.399 25.625 288 27.0241 288 28.75C288 30.4759 289.399 31.875 291.125 31.875Z" fill="black"/>
<path d="M350.5 16.25H275.5C272.053 16.25 269.25 19.0531 269.25 22.5V85C269.25 88.4469 272.053 91.25 275.5 91.25H303.625V85H275.5V41.25H350.5V53.75H356.75V22.5C356.75 19.0531 353.947 16.25 350.5 16.25ZM275.5 35V22.5H350.5V35H275.5Z" fill="black"/>
<path d="M221 165.5H225.5V162.5H221V165.5ZM234.5 165.5H243.5V162.5H234.5V165.5ZM252.5 165.5H261.5V162.5H252.5V165.5ZM270.5 165.5H279.5V162.5H270.5V165.5ZM288.5 165.5H293V162.5H288.5V165.5ZM293 165.5C294.434 165.5 295.837 165.359 297.194 165.091L296.612 162.148C295.445 162.379 294.237 162.5 293 162.5V165.5ZM304.947 161.878C307.291 160.309 309.309 158.291 310.878 155.947L308.385 154.278C307.034 156.296 305.296 158.034 303.278 159.385L304.947 161.878ZM314.091 148.194C314.359 146.837 314.5 145.434 314.5 144H311.5C311.5 145.237 311.379 146.445 311.148 147.612L314.091 148.194ZM314.5 144V138.5H311.5V144H314.5ZM314.5 127.5V116.5H311.5V127.5H314.5ZM314.5 105.5V100H311.5V105.5H314.5Z" fill="#D9D9D9"/>
<path d="M51.0607 98.9393C50.4749 98.3536 49.5251 98.3536 48.9393 98.9393L39.3934 108.485C38.8076 109.071 38.8076 110.021 39.3934 110.607C39.9792 111.192 40.9289 111.192 41.5147 110.607L50 102.121L58.4853 110.607C59.0711 111.192 60.0208 111.192 60.6066 110.607C61.1924 110.021 61.1924 109.071 60.6066 108.485L51.0607 98.9393ZM141 162.5H70V165.5H141V162.5ZM51.5 144V100H48.5V144H51.5ZM70 162.5C59.7827 162.5 51.5 154.217 51.5 144H48.5C48.5 155.874 58.1259 165.5 70 165.5V162.5Z" fill="#3E3E3E"/>
<path d="M262.061 51.0607C262.646 50.4749 262.646 49.5251 262.061 48.9393L252.515 39.3934C251.929 38.8076 250.979 38.8076 250.393 39.3934C249.808 39.9792 249.808 40.9289 250.393 41.5147L258.879 50L250.393 58.4853C249.808 59.0711 249.808 60.0208 250.393 60.6066C250.979 61.1924 251.929 61.1924 252.515 60.6066L262.061 51.0607ZM100 51.5H261V48.5H100V51.5Z" fill="#3E3E3E"/>
<path d="M129.5 42C129.5 35.3726 134.873 30 141.5 30H219.5C226.127 30 231.5 35.3726 231.5 42V57C231.5 63.6274 226.127 69 219.5 69H141.5C134.873 69 129.5 63.6274 129.5 57V42Z" fill="white"/>
<path d="M147.437 43.4306C147.348 43.4295 147.26 43.4004 147.188 43.3473C147.115 43.2942 147.061 43.2199 147.032 43.1345C147.004 43.0492 147.002 42.9571 147.029 42.871C147.055 42.785 147.107 42.7093 147.179 42.6544C148.731 41.5564 150.6 40.9972 152.5 41.0625C153.996 41.0625 156.145 41.3156 157.844 42.5363C157.937 42.6029 157.999 42.7036 158.018 42.8163C158.037 42.9291 158.011 43.0448 157.945 43.1381C157.876 43.2305 157.774 43.2923 157.661 43.3102C157.547 43.3281 157.431 43.3006 157.337 43.2338C155.895 42.317 154.208 41.86 152.5 41.9231C150.795 41.8652 149.117 42.3627 147.719 43.3406C147.639 43.404 147.539 43.436 147.437 43.4306V43.4306Z" fill="black"/>
<path d="M159.379 47.3962C159.31 47.3956 159.241 47.3784 159.18 47.3461C159.118 47.3138 159.065 47.2674 159.025 47.2106C158.052 45.8381 156.314 44.0099 152.5 44.0099C151.232 43.978 149.975 44.2529 148.836 44.8111C147.697 45.3693 146.71 46.1944 145.958 47.2162C145.891 47.3082 145.79 47.3699 145.677 47.3878C145.564 47.4057 145.449 47.3784 145.356 47.3118C145.308 47.278 145.267 47.2344 145.236 47.1839C145.205 47.1333 145.185 47.0769 145.177 47.0182C145.169 46.9595 145.173 46.8998 145.19 46.8428C145.206 46.7859 145.234 46.733 145.272 46.6874C146.105 45.5618 147.197 44.6528 148.455 44.0371C149.712 43.4214 151.1 43.1169 152.5 43.1493C155.656 43.1493 158.018 44.3193 159.722 46.7156C159.788 46.8096 159.813 46.9258 159.793 47.0386C159.773 47.1514 159.709 47.2517 159.616 47.3174C159.546 47.3657 159.464 47.393 159.379 47.3962V47.3962Z" fill="black"/>
<path d="M150.407 57.9375C150.32 57.9371 150.235 57.9106 150.163 57.8615C150.091 57.8124 150.035 57.7429 150.002 57.6619C149.98 57.6089 149.969 57.5519 149.969 57.4943C149.969 57.4367 149.982 57.3799 150.005 57.3272C150.028 57.2745 150.062 57.2271 150.104 57.1879C150.146 57.1488 150.196 57.1186 150.25 57.0994C152.708 56.1544 154.187 54.2194 154.187 51.9188C154.204 51.6929 154.172 51.466 154.093 51.2536C154.014 51.0413 153.891 50.8484 153.731 50.6883C153.57 50.5281 153.377 50.4043 153.165 50.3255C152.953 50.2466 152.726 50.2145 152.5 50.2313C151.454 50.2313 150.947 50.7938 150.812 52.1157C150.75 52.7339 150.45 53.3038 149.976 53.7055C149.502 54.1073 148.89 54.3096 148.27 54.27C147.936 54.2749 147.606 54.2102 147.298 54.0801C146.991 53.9501 146.715 53.7575 146.486 53.5146C146.257 53.2717 146.082 52.9838 145.971 52.6694C145.859 52.3549 145.815 52.0208 145.84 51.6882C145.871 49.949 146.589 48.2928 147.837 47.0809C149.084 45.869 150.761 45.1998 152.5 45.2194C154.283 45.2194 155.994 45.9251 157.259 47.1825C158.524 48.4399 159.24 50.1467 159.25 51.93C159.21 53.1858 158.945 54.4242 158.468 55.5863C158.422 55.6899 158.338 55.7718 158.233 55.8148C158.128 55.8578 158.011 55.8586 157.906 55.8169C157.853 55.7954 157.806 55.7637 157.766 55.7237C157.726 55.6837 157.694 55.6361 157.673 55.5838C157.651 55.5315 157.641 55.4754 157.641 55.4189C157.641 55.3624 157.653 55.3064 157.675 55.2544C158.107 54.197 158.349 53.0716 158.389 51.93C158.382 50.374 157.758 48.8844 156.654 47.7878C155.55 46.6912 154.056 46.077 152.5 46.08C151.747 46.0651 150.999 46.1989 150.297 46.4737C149.596 46.7484 148.956 47.1588 148.414 47.6813C147.871 48.2038 147.437 48.8282 147.137 49.5186C146.836 50.2091 146.674 50.9521 146.661 51.705C146.638 51.9239 146.662 52.1451 146.73 52.3542C146.799 52.5633 146.911 52.7555 147.059 52.9181C147.208 53.0807 147.389 53.2101 147.591 53.2977C147.792 53.3852 148.011 53.4291 148.231 53.4263C148.433 53.4464 148.638 53.4262 148.832 53.3669C149.027 53.3075 149.208 53.2102 149.365 53.0805C149.522 52.9508 149.652 52.7913 149.747 52.6112C149.842 52.4311 149.9 52.234 149.918 52.0313C150.121 50.2819 150.981 49.3932 152.483 49.3932C152.823 49.376 153.164 49.4307 153.481 49.5538C153.799 49.677 154.087 49.8657 154.327 50.1077C154.567 50.3498 154.753 50.6397 154.874 50.9585C154.994 51.2773 155.046 51.618 155.026 51.9582C155.026 54.6244 153.338 56.8632 150.526 57.9375C150.486 57.942 150.447 57.942 150.407 57.9375V57.9375Z" fill="black"/>
<path d="M154.621 57.5325C154.513 57.5307 154.409 57.4909 154.328 57.42C154.288 57.3802 154.256 57.3329 154.234 57.2808C154.213 57.2287 154.201 57.1727 154.201 57.1162C154.201 57.0597 154.213 57.0038 154.234 56.9517C154.256 56.8995 154.288 56.8522 154.328 56.8125C155.594 55.5007 156.307 53.7527 156.319 51.93C156.319 51.0525 156.049 48.1894 152.551 48.1894C152.041 48.1714 151.533 48.2552 151.055 48.4358C150.578 48.6164 150.142 48.8902 149.772 49.2412C149.441 49.5689 149.179 49.9599 149.002 50.3909C148.825 50.8219 148.737 51.2841 148.742 51.75C148.741 51.8639 148.695 51.9726 148.614 52.0526C148.533 52.1326 148.423 52.1775 148.309 52.1775C148.253 52.1782 148.197 52.1677 148.144 52.1466C148.092 52.1254 148.044 52.094 148.003 52.0543C147.963 52.0145 147.931 51.9671 147.909 51.9149C147.887 51.8627 147.876 51.8066 147.876 51.75C147.867 51.1737 147.973 50.6015 148.188 50.0665C148.402 49.5315 148.721 49.0445 149.125 48.6337C149.573 48.2036 150.102 47.8668 150.682 47.6427C151.261 47.4187 151.879 47.312 152.5 47.3287C155.92 47.3287 157.135 49.8037 157.135 51.93C157.128 53.9589 156.342 55.9077 154.941 57.375C154.903 57.4231 154.854 57.4621 154.798 57.4893C154.743 57.5166 154.682 57.5313 154.621 57.5325V57.5325Z" fill="black"/>
<path d="M148.371 56.1037C148.078 56.1031 147.785 56.0862 147.494 56.0531C147.438 56.0468 147.383 56.0296 147.334 56.0023C147.284 55.975 147.241 55.9382 147.205 55.8941C147.17 55.85 147.144 55.7993 147.128 55.745C147.113 55.6908 147.108 55.6339 147.114 55.5778C147.12 55.5217 147.138 55.4673 147.165 55.4178C147.192 55.3684 147.229 55.3248 147.273 55.2895C147.317 55.2543 147.368 55.228 147.422 55.2124C147.476 55.1967 147.533 55.1918 147.589 55.1981C148.99 55.3556 150.092 55.1081 150.874 54.4556C151.235 54.1333 151.526 53.7414 151.731 53.3035C151.936 52.8656 152.05 52.3907 152.067 51.9075C152.07 51.8505 152.084 51.7947 152.109 51.7435C152.134 51.6922 152.169 51.6465 152.212 51.6092C152.255 51.5718 152.305 51.5436 152.36 51.5263C152.414 51.5089 152.471 51.5027 152.528 51.5081C152.642 51.5168 152.747 51.5691 152.823 51.6541C152.898 51.7391 152.938 51.8501 152.933 51.9637C152.909 52.5654 152.764 53.1559 152.504 53.6994C152.245 54.2428 151.878 54.7279 151.426 55.125C150.557 55.8061 149.474 56.1534 148.371 56.1037V56.1037Z" fill="black"/>
<path d="M173.211 46.4205C173.15 45.8826 172.9 45.4659 172.461 45.1705C172.022 44.8712 171.469 44.7216 170.802 44.7216C170.325 44.7216 169.912 44.7973 169.563 44.9489C169.215 45.0966 168.944 45.3011 168.751 45.5625C168.561 45.8201 168.467 46.1136 168.467 46.4432C168.467 46.7197 168.531 46.9583 168.66 47.1591C168.792 47.3598 168.965 47.5284 169.177 47.6648C169.393 47.7973 169.624 47.9091 169.87 48C170.116 48.0871 170.353 48.1591 170.58 48.2159L171.717 48.5114C172.088 48.6023 172.469 48.7254 172.859 48.8807C173.249 49.036 173.611 49.2405 173.944 49.4943C174.277 49.7481 174.546 50.0625 174.751 50.4375C174.959 50.8125 175.063 51.2614 175.063 51.7841C175.063 52.4432 174.893 53.0284 174.552 53.5398C174.215 54.0511 173.724 54.4545 173.08 54.75C172.44 55.0455 171.665 55.1932 170.756 55.1932C169.885 55.1932 169.131 55.0549 168.495 54.7784C167.859 54.5019 167.361 54.1098 167.001 53.6023C166.641 53.0909 166.442 52.4848 166.404 51.7841H168.165C168.2 52.2045 168.336 52.5549 168.575 52.8352C168.817 53.1117 169.126 53.3182 169.501 53.4545C169.879 53.5871 170.294 53.6534 170.745 53.6534C171.241 53.6534 171.683 53.5758 172.069 53.4205C172.459 53.2614 172.766 53.0417 172.989 52.7614C173.213 52.4773 173.325 52.1458 173.325 51.767C173.325 51.4223 173.226 51.1402 173.029 50.9205C172.836 50.7008 172.573 50.5189 172.239 50.375C171.91 50.2311 171.537 50.1042 171.12 49.9943L169.745 49.6193C168.813 49.3655 168.075 48.9924 167.529 48.5C166.987 48.0076 166.717 47.3561 166.717 46.5455C166.717 45.875 166.898 45.2898 167.262 44.7898C167.626 44.2898 168.118 43.9015 168.739 43.625C169.361 43.3447 170.061 43.2045 170.842 43.2045C171.629 43.2045 172.325 43.3428 172.927 43.6193C173.533 43.8958 174.01 44.2765 174.359 44.7614C174.707 45.2424 174.889 45.7955 174.904 46.4205H173.211ZM177.025 55V46.2727H178.724V55H177.025ZM177.883 44.9261C177.587 44.9261 177.334 44.8277 177.121 44.6307C176.913 44.4299 176.809 44.1913 176.809 43.9148C176.809 43.6345 176.913 43.3958 177.121 43.1989C177.334 42.9981 177.587 42.8977 177.883 42.8977C178.178 42.8977 178.43 42.9981 178.638 43.1989C178.851 43.3958 178.957 43.6345 178.957 43.9148C178.957 44.1913 178.851 44.4299 178.638 44.6307C178.43 44.8277 178.178 44.9261 177.883 44.9261ZM184.668 58.4545C183.975 58.4545 183.379 58.3636 182.879 58.1818C182.382 58 181.977 57.7595 181.663 57.4602C181.348 57.161 181.113 56.8333 180.958 56.4773L182.418 55.875C182.521 56.0417 182.657 56.2178 182.827 56.4034C183.002 56.5928 183.237 56.7538 183.532 56.8864C183.831 57.0189 184.216 57.0852 184.685 57.0852C185.329 57.0852 185.862 56.928 186.282 56.6136C186.702 56.303 186.913 55.8068 186.913 55.125V53.4091H186.805C186.702 53.5947 186.555 53.8011 186.362 54.0284C186.172 54.2557 185.911 54.4527 185.577 54.6193C185.244 54.786 184.81 54.8693 184.276 54.8693C183.587 54.8693 182.966 54.7083 182.413 54.3864C181.863 54.0606 181.428 53.5814 181.106 52.9489C180.788 52.3125 180.629 51.5303 180.629 50.6023C180.629 49.6742 180.786 48.8788 181.1 48.2159C181.418 47.553 181.854 47.0455 182.407 46.6932C182.96 46.3371 183.587 46.1591 184.288 46.1591C184.829 46.1591 185.267 46.25 185.6 46.4318C185.933 46.6098 186.193 46.8182 186.379 47.0568C186.568 47.2955 186.714 47.5057 186.816 47.6875H186.941V46.2727H188.606V55.1932C188.606 55.9432 188.432 56.5587 188.083 57.0398C187.735 57.5208 187.263 57.8769 186.668 58.108C186.077 58.339 185.411 58.4545 184.668 58.4545ZM184.651 53.4602C185.14 53.4602 185.553 53.3466 185.89 53.1193C186.231 52.8883 186.488 52.5587 186.663 52.1307C186.841 51.6989 186.93 51.1818 186.93 50.5795C186.93 49.9924 186.843 49.4754 186.668 49.0284C186.494 48.5814 186.238 48.233 185.901 47.983C185.564 47.7292 185.147 47.6023 184.651 47.6023C184.14 47.6023 183.714 47.7348 183.373 48C183.032 48.2614 182.774 48.6174 182.6 49.0682C182.43 49.5189 182.344 50.0227 182.344 50.5795C182.344 51.1515 182.432 51.6534 182.606 52.0852C182.78 52.517 183.038 52.8542 183.379 53.0966C183.723 53.339 184.147 53.4602 184.651 53.4602ZM192.583 49.8182V55H190.884V46.2727H192.515V47.6932H192.623C192.824 47.2311 193.138 46.8598 193.566 46.5795C193.998 46.2992 194.541 46.1591 195.197 46.1591C195.791 46.1591 196.312 46.2841 196.759 46.5341C197.206 46.7803 197.553 47.1477 197.799 47.6364C198.045 48.125 198.168 48.7292 198.168 49.4489V55H196.469V49.6534C196.469 49.0208 196.305 48.5265 195.975 48.1705C195.646 47.8106 195.193 47.6307 194.617 47.6307C194.223 47.6307 193.873 47.7159 193.566 47.8864C193.263 48.0568 193.022 48.3068 192.844 48.6364C192.67 48.9621 192.583 49.3561 192.583 49.8182ZM206.573 43.3636V55H204.817V43.3636H206.573ZM210.692 49.8182V55H208.994V46.2727H210.624V47.6932H210.732C210.933 47.2311 211.247 46.8598 211.675 46.5795C212.107 46.2992 212.651 46.1591 213.306 46.1591C213.901 46.1591 214.422 46.2841 214.869 46.5341C215.316 46.7803 215.662 47.1477 215.908 47.6364C216.155 48.125 216.278 48.7292 216.278 49.4489V55H214.579V49.6534C214.579 49.0208 214.414 48.5265 214.085 48.1705C213.755 47.8106 213.302 47.6307 212.727 47.6307C212.333 47.6307 211.982 47.7159 211.675 47.8864C211.372 48.0568 211.132 48.3068 210.954 48.6364C210.78 48.9621 210.692 49.3561 210.692 49.8182Z" fill="black"/>
<path d="M141.5 32H219.5V28H141.5V32ZM229.5 42V57H233.5V42H229.5ZM219.5 67H141.5V71H219.5V67ZM131.5 57V42H127.5V57H131.5ZM141.5 67C135.977 67 131.5 62.5228 131.5 57H127.5C127.5 64.732 133.768 71 141.5 71V67ZM229.5 57C229.5 62.5228 225.023 67 219.5 67V71C227.232 71 233.5 64.732 233.5 57H229.5ZM219.5 32C225.023 32 229.5 36.4772 229.5 42H233.5C233.5 34.268 227.232 28 219.5 28V32ZM141.5 28C133.768 28 127.5 34.268 127.5 42H131.5C131.5 36.4772 135.977 32 141.5 32V28Z" fill="black"/>
<path d="M140.75 192.5H221.25V198.25H140.75V192.5ZM212.625 143.625C213.387 143.625 214.119 143.322 214.658 142.783C215.197 142.244 215.5 141.512 215.5 140.75V132.125C215.5 131.534 215.317 130.958 214.978 130.474C214.638 129.99 214.158 129.623 213.603 129.422L181.978 117.922C181.346 117.694 180.654 117.694 180.022 117.922L148.397 129.422C147.842 129.623 147.362 129.99 147.022 130.474C146.683 130.958 146.5 131.534 146.5 132.125V140.75C146.5 141.512 146.803 142.244 147.342 142.783C147.881 143.322 148.613 143.625 149.375 143.625H152.25V181H146.5V186.75H215.5V181H209.75V143.625H212.625ZM152.25 134.137L181 123.672L209.75 134.137V137.875H152.25V134.137ZM186.75 181H175.25V143.625H186.75V181ZM158 143.625H169.5V181H158V143.625ZM204 181H192.5V143.625H204V181Z" fill="black"/>
</svg>
