<svg width="307" height="56" viewBox="0 0 307 56" fill="none" xmlns="http://www.w3.org/2000/svg">
<circle cx="26.5" cy="28.125" r="26.5" fill="white" fill-opacity="0.3"/>
<circle cx="52.5" cy="28.125" r="26.5" fill="white"/>
<path d="M155.871 15.058C160.738 15.058 164.655 16.518 167.624 19.438C170.641 22.358 172.15 26.6893 172.15 32.432V54.916H160.762V34.184C160.762 31.0693 160.081 28.7577 158.718 27.249C157.355 25.6917 155.384 24.913 152.805 24.913C149.934 24.913 147.646 25.8133 145.943 27.614C144.24 29.366 143.388 31.994 143.388 35.498V54.916H132V0.75H143.388V19.73C144.897 18.2213 146.722 17.0777 148.863 16.299C151.004 15.4717 153.34 15.058 155.871 15.058Z" fill="white"/>
<path d="M218.451 35.425C218.451 35.571 218.378 36.593 218.232 38.491H188.521C189.057 40.9243 190.322 42.8467 192.317 44.258C194.313 45.6693 196.795 46.375 199.763 46.375C201.807 46.375 203.608 46.083 205.165 45.499C206.771 44.8663 208.256 43.893 209.618 42.579L215.677 49.149C211.979 53.383 206.577 55.5 199.471 55.5C195.043 55.5 191.125 54.6483 187.718 52.945C184.312 51.193 181.684 48.784 179.834 45.718C177.985 42.652 177.06 39.1723 177.06 35.279C177.06 31.4343 177.961 27.979 179.761 24.913C181.611 21.7983 184.117 19.3893 187.28 17.686C190.492 15.934 194.069 15.058 198.011 15.058C201.856 15.058 205.336 15.8853 208.45 17.54C211.565 19.1947 213.998 21.5793 215.75 24.694C217.551 27.76 218.451 31.337 218.451 35.425ZM198.084 23.672C195.505 23.672 193.339 24.402 191.587 25.862C189.835 27.322 188.765 29.3173 188.375 31.848H207.72C207.331 29.366 206.26 27.395 204.508 25.935C202.756 24.4263 200.615 23.672 198.084 23.672Z" fill="white"/>
<path d="M242.093 55.5C237.908 55.5 234.136 54.6483 230.778 52.945C227.469 51.193 224.865 48.784 222.967 45.718C221.118 42.652 220.193 39.1723 220.193 35.279C220.193 31.3857 221.118 27.906 222.967 24.84C224.865 21.774 227.469 19.3893 230.778 17.686C234.136 15.934 237.908 15.058 242.093 15.058C246.23 15.058 249.831 15.934 252.897 17.686C256.012 19.3893 258.275 21.847 259.686 25.059L250.853 29.804C248.809 26.2027 245.865 24.402 242.02 24.402C239.051 24.402 236.594 25.3753 234.647 27.322C232.7 29.2687 231.727 31.921 231.727 35.279C231.727 38.637 232.7 41.2893 234.647 43.236C236.594 45.1827 239.051 46.156 242.02 46.156C245.913 46.156 248.858 44.3553 250.853 40.754L259.686 45.572C258.275 48.6867 256.012 51.12 252.897 52.872C249.831 54.624 246.23 55.5 242.093 55.5Z" fill="white"/>
<path d="M279.901 39.513L274.426 44.915V54.916H263.038V0.75H274.426V31.41L291.07 15.642H304.648L288.296 32.286L306.108 54.916H292.311L279.901 39.513Z" fill="white"/>
<path d="M127.238 46.9883C123.532 50.6944 118.81 53.2183 113.67 54.2408C108.529 55.2633 103.201 54.7385 98.3589 52.7328C93.5166 50.7271 89.3779 47.3305 86.4661 42.9726C83.5542 38.6147 82 33.4912 82 28.25C82 23.0088 83.5542 17.8853 86.4661 13.5274C89.3779 9.16949 93.5166 5.77292 98.3589 3.76719C103.201 1.76147 108.529 1.23668 113.67 2.25919C118.81 3.2817 123.532 5.80558 127.238 9.51167L118.431 18.3187C116.467 16.3545 113.965 15.0168 111.24 14.4749C108.516 13.9329 105.692 14.2111 103.125 15.2741C100.559 16.3371 98.3653 18.1373 96.822 20.447C95.2787 22.7567 94.455 25.4722 94.455 28.25C94.455 31.0278 95.2787 33.7433 96.822 36.053C98.3653 38.3627 100.559 40.1629 103.125 41.2259C105.692 42.2889 108.516 42.5671 111.24 42.0251C113.965 41.4832 116.467 40.1455 118.431 38.1813L127.238 46.9883Z" fill="white"/>
</svg>
