<svg width="101" height="15" viewBox="0 0 101 15" fill="none" xmlns="http://www.w3.org/2000/svg">
<g clip-path="url(#clip0_934_2711)">
<path d="M16.9578 11.8265L14.1891 14.7953C14.1292 14.8598 14.0567 14.9113 13.976 14.9465C13.8954 14.9817 13.8083 14.9999 13.7203 15H0.595314C0.532716 15 0.471484 14.9817 0.419119 14.9474C0.366755 14.9131 0.32553 14.8642 0.300491 14.8069C0.275452 14.7495 0.267686 14.6861 0.278145 14.6243C0.288605 14.5626 0.316833 14.5053 0.359377 14.4594L3.125 11.4906C3.18489 11.4261 3.25741 11.3747 3.33806 11.3395C3.4187 11.3043 3.50575 11.286 3.59375 11.2859H16.7188C16.7819 11.2846 16.8441 11.302 16.8973 11.336C16.9506 11.3699 16.9928 11.4188 17.0183 11.4766C17.0439 11.5344 17.0517 11.5985 17.0409 11.6607C17.0302 11.723 17.0012 11.7807 16.9578 11.8265ZM14.1891 5.84686C14.129 5.78267 14.0564 5.73142 13.9758 5.69622C13.8952 5.66103 13.8083 5.64264 13.7203 5.64219H0.595314C0.532716 5.64222 0.471484 5.6605 0.419119 5.69481C0.366755 5.72911 0.32553 5.77794 0.300491 5.83531C0.275452 5.89269 0.267686 5.95611 0.278145 6.01783C0.288605 6.07955 0.316833 6.13689 0.359377 6.18281L3.125 9.15313C3.18511 9.21731 3.25769 9.26856 3.33828 9.30377C3.41888 9.33895 3.50581 9.35734 3.59375 9.3578H16.7188C16.7812 9.35747 16.8422 9.33895 16.8944 9.30455C16.9466 9.27012 16.9875 9.22128 17.0123 9.16397C17.0372 9.10666 17.0448 9.04334 17.0342 8.98177C17.0238 8.92019 16.9956 8.863 16.9531 8.81719L14.1891 5.84686ZM0.595314 3.71405H13.7203C13.8083 3.71397 13.8954 3.69573 13.976 3.66052C14.0567 3.62531 14.1292 3.57384 14.1891 3.50936L16.9578 0.540617C17.0012 0.494761 17.0302 0.437072 17.0409 0.374808C17.0517 0.312544 17.0439 0.248486 17.0183 0.190695C16.9928 0.132905 16.9506 0.0839637 16.8973 0.0500305C16.8441 0.016097 16.7819 -0.00131269 16.7188 -7.98106e-06H3.59375C3.50575 8.46502e-05 3.4187 0.0183073 3.33806 0.0535239C3.25741 0.0887403 3.18489 0.140195 3.125 0.20468L0.359377 3.17342C0.316833 3.21934 0.288605 3.27669 0.278145 3.33841C0.267686 3.40013 0.275452 3.46355 0.300491 3.52092C0.32553 3.5783 0.366755 3.62713 0.419119 3.66142C0.471484 3.69573 0.532716 3.71402 0.595314 3.71405Z" fill="url(#paint0_linear_934_2711)"/>
<path d="M32.9594 6.34378H25.9375V4.03128H34.7844V1.71878H25.9141C25.6109 1.71714 25.3106 1.77521 25.03 1.88966C24.7494 2.00413 24.4939 2.17274 24.2786 2.38588C24.0631 2.59902 23.8917 2.85252 23.7742 3.13188C23.6567 3.41125 23.5953 3.71103 23.5938 4.0141V6.35785C23.595 6.66118 23.6559 6.9613 23.7733 7.24102C23.8906 7.52075 24.0619 7.77461 24.2773 7.98808C24.493 8.20157 24.7484 8.37046 25.0292 8.48511C25.31 8.59977 25.6108 8.65794 25.9141 8.65628H32.9453V10.9688H23.7609V13.2813H32.9594C33.2625 13.2829 33.5628 13.2249 33.8434 13.1104C34.1241 12.9959 34.3795 12.8273 34.5948 12.6142C34.8103 12.4011 34.9817 12.1476 35.0992 11.8682C35.2167 11.5888 35.2781 11.289 35.2797 10.986V8.64222C35.2784 8.33889 35.2175 8.03878 35.1002 7.75905C34.9828 7.47932 34.8116 7.22546 34.5961 7.01199C34.3805 6.79852 34.125 6.62963 33.8442 6.51497C33.5634 6.40032 33.2627 6.34214 32.9594 6.34378Z" fill="black"/>
<path d="M46.5625 1.71875H39.5141C39.2105 1.71628 38.9094 1.77373 38.628 1.88783C38.3467 2.00192 38.0906 2.17039 37.8745 2.38363C37.6583 2.59684 37.4864 2.85061 37.3686 3.13039C37.2506 3.41017 37.1891 3.71047 37.1875 4.01406V10.9859C37.1891 11.2895 37.2506 11.5898 37.3686 11.8696C37.4864 12.1494 37.6583 12.4032 37.8745 12.6164C38.0906 12.8296 38.3467 12.9981 38.628 13.1122C38.9094 13.2263 39.2105 13.2837 39.5141 13.2812H46.5625C46.8656 13.2829 47.1659 13.2248 47.4466 13.1104C47.7272 12.9959 47.9827 12.8273 48.198 12.6142C48.4134 12.401 48.5848 12.1475 48.7023 11.8682C48.8198 11.5888 48.8812 11.289 48.8828 10.9859V4.01406C48.8812 3.711 48.8198 3.41122 48.7023 3.13184C48.5848 2.85248 48.4134 2.59898 48.198 2.38584C47.9827 2.1727 47.7272 2.00409 47.4466 1.88963C47.1659 1.77517 46.8656 1.71711 46.5625 1.71875ZM46.5453 10.9688H39.5312V4.03125H46.5422L46.5453 10.9688Z" fill="black"/>
<path d="M71.25 1.71877H64.375C64.0719 1.71713 63.7715 1.77519 63.4909 1.88964C63.2103 2.00411 62.955 2.17272 62.7395 2.38586C62.524 2.599 62.3526 2.8525 62.2351 3.13186C62.1176 3.41124 62.0564 3.71102 62.0547 4.01408V13.2813H64.3984V9.48283H71.2422V13.2813H73.5859V4.01408C73.5844 3.70969 73.5225 3.40863 73.4041 3.12822C73.2855 2.84783 73.1128 2.59364 72.8956 2.38028C72.6786 2.16694 72.4214 1.99866 72.1389 1.88513C71.8564 1.7716 71.5544 1.71507 71.25 1.71877ZM71.2328 7.17033H64.389V4.03127H71.2328V7.17033Z" fill="black"/>
<path d="M98.6172 1.71878H91.7422C91.4391 1.71714 91.1387 1.77521 90.8581 1.88966C90.5775 2.00413 90.3222 2.17274 90.1067 2.38588C89.8912 2.59902 89.7198 2.85252 89.6023 3.13188C89.4848 3.41125 89.4236 3.71103 89.4219 4.0141V13.2813H91.7656V9.48285H98.5937V13.2813H100.937V4.0141C100.936 3.71103 100.875 3.41125 100.757 3.13188C100.64 2.85252 100.468 2.59902 100.253 2.38588C100.037 2.17274 99.7819 2.00413 99.5012 1.88966C99.2206 1.77521 98.9203 1.71714 98.6172 1.71878ZM98.5937 7.17035H91.75V4.03128H98.5937V7.17035Z" fill="black"/>
<path d="M85 10.9688H84.0625L80.7109 2.68751C80.5961 2.40181 80.3984 2.15695 80.1434 1.98436C79.8884 1.81175 79.5876 1.71926 79.2797 1.71876H77.2C76.9978 1.71773 76.7975 1.75653 76.6105 1.83292C76.4233 1.90932 76.2531 2.02182 76.1094 2.16401C75.9658 2.30622 75.8515 2.47529 75.7733 2.66164C75.695 2.84797 75.654 3.0479 75.6531 3.25001V13.2813H77.9969V4.03126H78.9344L82.2843 12.3125C82.4011 12.5977 82.6003 12.8415 82.8564 13.013C83.1123 13.1844 83.4137 13.2756 83.7218 13.275H85.8015C86.0036 13.276 86.204 13.2373 86.3911 13.1609C86.5783 13.0845 86.7484 12.972 86.8922 12.8298C87.0357 12.6876 87.15 12.5185 87.2282 12.3322C87.3065 12.1458 87.3473 11.9459 87.3484 11.7438V1.71876H85V10.9688Z" fill="black"/>
<path d="M53.2969 1.71875H50.9531V10.9859C50.9547 11.2897 51.0163 11.5901 51.1344 11.87C51.2523 12.1499 51.4244 12.4037 51.6406 12.6169C51.8569 12.8302 52.1131 12.9986 52.3947 13.1126C52.6762 13.2266 52.9775 13.2839 53.2812 13.2813H60.3125V10.9688H53.2969V1.71875Z" fill="black"/>
</g>
<defs>
<linearGradient id="paint0_linear_934_2711" x1="1.68906" y1="15.3578" x2="15.4516" y2="-0.157819" gradientUnits="userSpaceOnUse">
<stop offset="0.08" stop-color="#9945FF"/>
<stop offset="0.3" stop-color="#8752F3"/>
<stop offset="0.5" stop-color="#5497D5"/>
<stop offset="0.6" stop-color="#43B4CA"/>
<stop offset="0.72" stop-color="#28E0B9"/>
<stop offset="0.97" stop-color="#19FB9B"/>
</linearGradient>
<clipPath id="clip0_934_2711">
<rect width="100.937" height="15" fill="white"/>
</clipPath>
</defs>
</svg>
